<?xml version="1.0" encoding="UTF-8"?>
<!DOCTYPE svg PUBLIC "-//W3C//DTD SVG 1.1//EN" "http://www.w3.org/Graphics/SVG/1.1/DTD/svg11.dtd">
<!-- Creator: CorelDRAW 2017 -->
<svg xmlns="http://www.w3.org/2000/svg" xml:space="preserve" width="6.25in" height="3.125in" version="1.1" style="shape-rendering:geometricPrecision; text-rendering:geometricPrecision; image-rendering:optimizeQuality; fill-rule:evenodd; clip-rule:evenodd"
viewBox="0 0 6250 3125"
 xmlns:xlink="http://www.w3.org/1999/xlink">
 <defs>
  <style type="text/css">
   <![CDATA[
    .fil0 {fill:#373435}
   ]]>
  </style>
 </defs>
 <g id="Layer_x0020_1">
  <metadata id="CorelCorpID_0Corel-Layer"/>
  <path class="fil0" d="M5633.72 2083.05l0 -1010.69c-16.31,-1.48 -63.84,-13.38 -83.46,-17.54 -169.74,-35.81 -218.8,-46.23 -392.86,-99.47 -67.03,-20.5 -154.32,-49.63 -220.37,-75.67 -70.89,-28.06 -144.95,-54.41 -216.16,-77.48 -49.85,-16.16 -97.57,-31.67 -145.82,-50.69 -47.61,-18.81 -96.5,-32.74 -146.12,-49.42 -99.59,-33.48 -198.74,-63.55 -296.08,-98.2 -195.77,-69.93 -397.8,-138.48 -587.4,-223.81 -7.53,-3.4 -11.05,-4.04 -17.95,-7.12 -78.76,-34.65 -156.55,-73.54 -235.4,-105.96l-68.44 -31.98c-31.98,-14.15 -141.13,-71.73 -178.22,-92.89 -5.74,-3.3 -9.24,-3.83 -15.72,-7.02 -19.46,-9.78 -118.07,-41.02 -145.92,-49.84 -49.91,-16.05 -29.75,-11.06 -68.54,-29.87 -94.88,-45.8 -153.83,-30.93 -248.87,-47.17 -35.17,-5.96 -148.78,-7.56 -190.27,-4.15l-91.53 5.85c-36.15,0.96 -18.24,1.06 -45.91,3.82 -18.76,1.91 -22.37,4.04 -39.16,9.46 -24.73,7.87 -48.17,15.94 -74,23.7l-56.95 18.17c-58.33,16.06 -131.47,21.35 -198.71,21.04 -16.78,-0.1 -33.32,0.54 -50.13,0.64 -12.2,0 -35.49,1.39 -44.89,0.75 -13.27,-0.85 -28.96,-4.68 -43.9,-4.57 -16.07,0.22 -31.89,0 -47.9,0 -65.21,0.44 -125.2,-6.48 -183.4,12.12 -33.41,10.63 -71.3,32.94 -84.82,63.55 -17.09,38.69 -4.09,85.67 18.06,115.11 13.67,18.17 34.69,31.25 57.58,40.17 24.57,9.67 52.28,14.88 78.89,18.91 33.35,5.01 59.57,3.2 92.7,5.85 64.77,5.31 120.71,6.8 185.18,2.13 60.46,-4.46 122.44,-14.88 182.71,-14.35 -2.07,10.1 -3.07,6.17 -10.48,15.3 -3.26,3.94 -6.03,8.93 -9.1,13.5 -11.26,1.71 -23.66,-1.7 -35.82,-1.81 -9.11,-0.2 -25.57,2.03 -35.65,3.83 -61.26,11.37 -134.07,17.64 -192.19,37.2 -8.47,2.86 -18.4,9.24 -27.92,10.41 -10.53,1.49 -26.65,0.64 -38.02,1.06 -54.48,2.44 -186.84,-2.76 -224.17,6.28 3.44,3.82 -0.51,0.84 5.94,4.88 14.16,9.04 80.96,33.69 96.85,39.96 90.18,35.61 106.21,23.8 185.84,11.17 48.27,-7.66 158.62,-10.43 195.52,13.39 -116.65,4.14 -129.9,-20.2 -259.74,27.31 -29.64,10.95 -33.49,1.81 -56.81,-7.22 -52.81,-20.52 -109.84,-35.08 -162.87,-53.57 -62.45,-21.89 -126.54,-73.44 -168.89,-86.5 -9.22,-2.87 -18.14,-4.04 -27.5,-6.7 -38.09,-10.83 -83.67,-22.63 -127.45,-11.16 -38.47,9.99 -75.54,26.36 -87.31,55.91 -18.99,1.16 -43.08,2.02 -51.9,15.72 16.43,31.24 212.19,99.05 263.68,120.19 47.75,19.56 89.25,37.31 132.35,61.54 87.5,49.1 151.04,113.28 257.67,126.89 57.93,7.44 116.61,12.22 174.5,16.68 57.78,4.47 117,5.96 168.55,23.48 61.32,21.05 90.69,26.79 161.53,30.19 -44.33,10.84 -131.36,-4.68 -176.71,-12.76 -57.9,-10.41 -112.8,-19.02 -172.04,-25.82 -73.01,-8.5 -193.3,-10.63 -255.7,-43.16 -64.89,-33.78 -124.22,-71.63 -186.95,-109.25 -52.18,-31.24 -270.41,-113.92 -348.34,-145.92 -48.7,-19.98 -34.11,-6.15 -52.24,-45.48 -99.01,-14.89 -277.34,-6.38 -282.84,124.13 -0.91,21.15 -15.51,26.35 -15.02,45.91l27.54 3.08c5.87,10.63 1.69,6.79 14.74,11.37 21.28,7.44 46.64,8.4 69.56,9.04 34.47,0.96 69.14,-10.63 97.75,-7.76 35.96,3.62 55.15,10.31 95.91,8.72 35.2,-1.49 55.37,8.81 83.3,19.66 22.17,8.72 56.37,17.22 81.36,23.7 28.96,7.44 56.03,10.94 86.32,18.17 42.87,10.09 84.06,19.13 125.9,31.56 55.99,16.58 47.42,28.26 126.79,27.84 8.64,0 68.8,18.81 81.78,22.95 69.84,22.53 111.56,19.56 181.9,25.93 37.13,3.4 53.78,6.7 83.65,20.73 23.63,11.15 44.36,23.59 68.23,36.44 26.76,14.35 41.53,20.83 75.57,29.02 52.65,12.54 41.02,5.31 86.03,-4.04 28.1,-5.95 65.4,-6.59 94.78,-10.73 75.24,-10.63 147.98,-24.87 222.02,-39.74 75.24,-15.2 149.56,-22.33 225.94,-34.01 38.35,-5.85 152.41,-14.35 192.28,-14.67 80.56,-0.53 155.07,14.35 231.89,30.61 13.39,2.77 28.59,5.52 41.99,10.09 7.96,2.76 14.13,2.98 21.78,5.53l55.9 19.13c48.58,13.49 120.52,29.97 162.4,47.4 86.18,35.91 151.33,88.63 226.15,138.37l95.65 61.43c19.76,12.44 39.32,27.11 61.11,41.44 31.45,20.72 66,38.37 98.62,58.67 29.02,18.07 134.34,85.44 160.79,98.95 34.01,17.31 64.08,40.17 99.05,58.24 11.7,5.95 20.62,11.47 33.27,18.91l269.08 148.05c20.73,10.85 44,24.66 68.13,36.88 20.3,10.31 47.18,21.68 69.19,33.16 24.02,12.54 47.29,19.98 72.7,32.1 47.71,22.85 94.16,42.39 142.19,67.47l246.03 118.51c11.06,5.42 23.46,10.19 36.07,16.15 31.86,14.88 74.93,30.61 107.93,46.98 123.86,61.21 271.81,116.69 400.13,174.19 23.44,10.63 48.17,20.72 73.15,31.45 14.4,6.27 59.38,28.48 72.5,30.09z"/>
  <path class="fil0" d="M5565.71 3994.36c-135.83,-83.23 -442.84,-294.95 -576.77,-363.87 -132.3,-68.11 -261.86,-138.91 -393.31,-207.37 -65.97,-34.27 -133,-69.57 -198.43,-101.99l-389.56 -194.71c-97.09,-47.01 -197.48,-103.39 -294,-145.02l-196.58 -92.89c-15.11,-8.16 -32.02,-15.07 -48.33,-23 -77.07,-37.13 -155.5,-84.04 -238.51,-102.67 -58.7,-13.07 -117.27,-10.86 -181.88,-39.86 -35.84,-16.24 -58.86,-38.83 -97.8,-44.06 -68.02,-9.03 -131.82,-6.98 -197.97,1.01 -6.34,0.78 -13.56,2.24 -20.17,2.72 -35.63,2.63 -134.46,20.39 -166.91,27.68 -15,3.34 -25.11,6.39 -39.65,9.51l-164.28 38.83c-42.5,11.8 -84.36,17.17 -125.04,28.93 -8.64,2.5 -12.81,2.84 -21.78,5.1l-143.88 37.76c-68.85,19.44 -132.52,41.96 -199.91,66.14 -47.25,16.98 -109.22,45.31 -164.97,36.35 -37.06,-5.97 -61.82,-32.77 -87.08,-57.42 -33.3,-32.48 -23.89,-40.04 -73.72,-63.41 -155.61,-73.05 -231.25,-78.69 -376.04,-129.25 -65.26,-49.04 -74.49,-68.24 -148.42,-137.11 -72.83,-56.88 -97.1,-77.07 -138.73,-123.77 -32.86,-20.5 -64.59,-75.24 -87.37,-109.57 -36.65,-78.78 -17.92,-61.2 -4.94,-134.97 32.64,-53.07 74.19,-110.31 106.74,-143.17 88.02,-74.65 59.66,-76.03 123.24,-114.26 50.16,-41.76 85.44,-72.93 129.49,-93.93 44.09,-23.48 76.84,-34.74 140.78,-56.4 48.69,-16.5 61.71,-21.58 73.03,-22.15 19.88,-0.99 77.57,12.66 83.54,28.28 2.88,7.55 -33.24,14.41 -48.04,22.01 -52.22,23.46 -173.7,107.9 -223.55,175.72 -47.11,55.46 -53.54,60.63 -153.05,136.44 -33.48,71.55 -44.28,64.23 -50.78,137.78 17.06,16.02 92.49,130.41 105.92,134.63 11.57,3.68 42.81,47.37 52.85,59.42 33.65,40.39 71.4,83.24 111.23,120.79 31.71,29.9 119.24,87.08 159.2,97.81 -1.22,-1.98 -125.98,-104.89 -142.48,-120.28 -51.7,-48.24 -98.31,-101.02 -138.99,-156.5 -38.7,-52.75 -124.04,-94.47 -121.67,-160.32 0.94,-25.76 6.95,-55.09 30.2,-78.74l62.75 -54.73c56.57,-42.38 113.97,-131.3 182.83,-189.12 33.6,-28.18 93.11,-68.01 129.94,-89.61 28.76,-16.91 35.04,-22.63 71.32,-15.67 23.46,4.51 58.24,15.8 81.62,27.18l-104.38 75.11c-33.77,25.8 -67.15,54.99 -101.93,75.01 -33.83,19.47 -72.85,45.86 -104.34,73.92 -43.43,38.71 -57.77,69.07 -51.03,115.67 4.6,32.13 28.06,75.02 59.29,107.66 62.24,65.01 86.96,145.59 155.69,204.87 30.9,26.67 87.67,71.04 122.41,90.62 -30.18,-45.76 -100.07,-99.96 -134.87,-148.46 -37.5,-52.28 -64.79,-104.25 -98.64,-157.31 -17.49,-27.41 -39.13,-48 -52.46,-77.74 -46,-102.59 65.35,-142.6 155.63,-211.4 96.2,-73.35 227.69,-162.25 325.38,-148.56 33.12,4.59 62.58,12.89 96.05,27.24 47.16,20.37 70.22,44.12 103.03,60.45 37.98,18.96 172.3,68.14 195.26,87.04 -11.76,21.23 -24.23,22.65 -43.08,26.08l-32.98 62c-70.81,-69.76 -150.96,-205.5 -260.93,-193.39 -82.27,8.99 -175.89,64.99 -257.54,143.89 -147.28,142.31 -119.35,138.2 -14.77,259.8 35.86,41.68 72.85,80.54 109.05,121.52 23.3,26.34 86.92,101 110.41,119.11 -10.44,-25.24 -78.29,-108.25 -99.68,-136.25 -34.01,-44.58 -67.04,-90.02 -105.06,-132.69 -17.81,-20.04 -43.05,-46.45 -54.87,-66.95 -18.28,-31.65 -10.95,-48.26 18.05,-78.84 73.14,-77.12 167.65,-172.52 270.11,-198.7 65.82,-16.85 88.06,-15.63 149.53,49.48 39.88,42.29 76.07,87.03 107.85,132 10.64,14.89 17.44,18.68 27.71,33.47 15.07,21.83 63.11,84 56.65,104.56 -16.63,27.96 -65.38,4.69 -94.09,10.44 -19.84,4.06 -25.05,8.06 -47.48,-0.07 -161.75,-59.07 -115.39,-70.02 -153.89,-181.96 2.41,7.56 8.3,54.14 -1.95,66.9 -12.65,-0.45 -26.06,-7.04 -37.39,-9.05 -11.03,-1.94 -25.93,-4.05 -37.09,-0.8 49.01,24.17 83.28,54.87 116.57,96.77 16.11,20.24 13.27,6.5 37.8,16.09 43.27,16.9 63.79,54.12 84.98,54.7 31.74,0.94 54.87,-0.17 88.4,21.02 12.78,-5.37 36.93,-24.56 50.78,-33.53 46.59,-30.27 101.63,-59.61 150.93,-79.88 75.31,-30.98 57.71,-3.76 103.94,-46.46 15.91,-14.71 31.46,-27.01 47.84,-38.91 14.45,-10.48 36.96,-22.79 48.81,-33.78 -35.13,1.32 -89.15,36.7 -120.19,59.83 -44.81,33.3 -137.16,36.93 -200.8,90 -9.29,-14.43 -12.84,-36.79 -22.35,-55.6 -9.26,-18.31 -18.67,-30.67 -30.7,-49.33 7.65,-15.14 14.11,-26.78 18.98,-41.67 4.2,-12.81 3.85,-27.48 13.34,-36.71 26.53,-25.97 37.09,-21.44 49.1,-63.5 -39.16,-32.53 -170.61,-76.74 -225.13,-112.83 -60.02,-39.8 -155.45,-90.4 -217.58,-89.68l-48.89 5.31c-18.48,1.52 -32.03,4.39 -48.17,8.27 -22.46,5.42 -28.21,14.12 -49.48,4.07 -17.59,-8.35 -35.3,-16.15 -52.87,-22.85 -73.88,-28.2 -75.82,-17.23 -104.08,-25.03 -17.2,-4.83 -85.21,-61.38 -98.61,-74.88 -47.95,-48.26 -65.88,-72.92 -85.67,-131.04 -11.02,-32.24 -10.65,-61.43 -14.25,-94.87 -3.93,-35.91 -6.94,-78.05 36.68,-85.43 19.97,-3.36 25.94,1.17 49.71,8.64 42.39,13.45 69.59,21.58 111.32,46.32 37.8,22.38 75.09,48.32 113.13,70.09 38.69,22.06 69.65,48.78 105.7,68.67 51.63,28.62 176.08,108.37 227.48,128.65 35.9,14.25 70.72,22.93 106.4,37.92 34.52,14.39 70.04,21.37 108.35,36.79 51.44,20.93 105.73,31.84 159.16,50.91 12.25,4.33 36.29,3.68 51.86,6.48 35.57,6.52 67.33,9.74 102.62,18.58 22.62,5.75 30.11,2.94 50.81,4.82 17.76,1.67 32.19,8.52 50.31,10.17 38.14,3.48 66.67,11.33 101.91,16.48 38.11,5.59 69.14,20.56 107.55,33.01 15.78,5.19 35.94,9.76 53.48,16.19 18.35,6.69 34.68,13.36 52.48,18.32 43.02,12.11 45.94,-1.89 105.64,26.9 18.59,8.98 56.67,13.05 78.41,13.46 42.03,0.78 85.55,4.64 125.87,11.13 143.35,22.94 180.54,49.08 315.95,97.54 140.15,50.34 282.04,75.74 421.62,110.63 68.57,17.17 137.39,29.48 209.77,50.56 68.29,19.89 139.46,38.7 209.47,59.43l212.71 62.99c36.65,11.6 69.5,20.02 107.1,31.7 34.51,10.75 70.96,18.82 103.93,28.84 141.73,43.28 278.9,77.27 421.98,119.64l485.54 165.28 -43.33 1276.89z"/>
 </g>
</svg>
