<?xml version="1.0" encoding="UTF-8"?>
<!DOCTYPE svg PUBLIC "-//W3C//DTD SVG 1.0//EN" "http://www.w3.org/TR/2001/REC-SVG-20010904/DTD/svg10.dtd">
<!-- Creator: CorelDRAW 2017 -->
<svg xmlns="http://www.w3.org/2000/svg" xml:space="preserve" width="0.416661in" height="0.520835in" version="1.0" style="shape-rendering:geometricPrecision; text-rendering:geometricPrecision; image-rendering:optimizeQuality; fill-rule:evenodd; clip-rule:evenodd"
viewBox="0 0 416.66 520.83"
 xmlns:xlink="http://www.w3.org/1999/xlink">
 <defs>
  <style type="text/css">
   <![CDATA[
    .str0 {stroke:black;stroke-width:41.67;stroke-miterlimit:2.61313}
    .str1 {stroke:black;stroke-width:20.83;stroke-miterlimit:2.61313}
    .str2 {stroke:black;stroke-width:3;stroke-miterlimit:2.61313}
    .fil0 {fill:none}
    .fil1 {fill:black}
   ]]>
  </style>
 </defs>
 <g id="Layer_x0020_1">
  <metadata id="CorelCorpID_0Corel-Layer"/>
  <path class="fil0 str0" d="M356.88 305.66l0 156.09"/>
  <path class="fil0 str0" d="M49.37 305.66l0 156.09"/>
  <path class="fil0 str0" d="M383.57 48.12l-53.39 146.68"/>
  <path class="fil0 str0" d="M76.06 48.12l-53.39 146.68"/>
  <path class="fil0 str0" d="M49.37 121.46l307.51 0"/>
  <path class="fil0 str0" d="M49.37 383.7l114.8 0"/>
  <path class="fil0 str0" d="M203.12 121.46l-1.63 173.16"/>
  <g id="_2431278887872">
   <rect class="fil0" x="191.55" y="383.71" width="19.89" height="36.89" rx="3.35" ry="15.44"/>
   <path class="fil1" d="M173.74 350.12l55.5 0c17.17,0 31.22,14.05 31.22,31.22l0 41.63c0,17.17 -14.05,31.22 -31.22,31.22l-55.5 0c-17.17,0 -31.22,-14.05 -31.22,-31.22l0 -41.63c0,-17.17 14.05,-31.22 31.22,-31.22zm26.13 70.48l3.24 0c4.58,0 8.33,-3.75 8.33,-8.33l0 -20.24c0,-4.58 -3.75,-8.33 -8.33,-8.33l-3.24 0c-4.58,0 -8.33,3.75 -8.33,8.33l0 20.24c0,4.58 3.75,8.33 8.33,8.33z"/>
   <path class="fil0 str1" d="M176.26 360.02l0 -34.2c0,-22.5 11.3,-31.2 25.24,-31.2 13.93,0 25.23,8.7 25.23,31.2l0 34.2"/>
   <path class="fil0 str2" d="M201.72 304.25c19.46,-0.16 14.97,38.7 14.97,45.87 -10.24,0 -20.48,0 -30.73,0 0,-11.58 -3.7,-45.72 15.76,-45.87z"/>
  </g>
  <path class="fil0 str0" d="M242.07 383.7l114.8 0"/>
 </g>
</svg>
