<?xml version="1.0" encoding="UTF-8"?>
<!DOCTYPE svg PUBLIC "-//W3C//DTD SVG 1.0//EN" "http://www.w3.org/TR/2001/REC-SVG-20010904/DTD/svg10.dtd">
<!-- Creator: CorelDRAW 2017 -->
<svg xmlns="http://www.w3.org/2000/svg" xml:space="preserve" width="1.5in" height="1.5in" version="1.0" style="shape-rendering:geometricPrecision; text-rendering:geometricPrecision; image-rendering:optimizeQuality; fill-rule:evenodd; clip-rule:evenodd"
viewBox="0 0 1500 1500"
 xmlns:xlink="http://www.w3.org/1999/xlink">
 <defs>
  <style type="text/css">
   <![CDATA[
    .str0 {stroke:black;stroke-width:6.94;stroke-miterlimit:2.61313}
    .str1 {stroke:#E6E6E6;stroke-width:3;stroke-miterlimit:2.61313}
    .fil0 {fill:black}
    .fil1 {fill:#999999}
    .fil2 {fill:#E6E6E6}
   ]]>
  </style>
 </defs>
 <g id="Layer_x0020_1">
  <metadata id="CorelCorpID_0Corel-Layer"/>
  <path class="fil0 str0" d="M708.92 87.87c344.89,0 624.48,279.59 624.48,624.48 0,344.89 -279.59,624.48 -624.48,624.48 -344.89,0 -624.48,-279.59 -624.48,-624.48 0,-344.89 279.59,-624.48 624.48,-624.48zm0 138.55c7.09,0 14.16,0.16 21.18,0.45 7.31,0.31 16.31,-38.07 23.55,-37.64 7.28,0.44 35.97,5.03 43.55,6.14 9.64,1.41 -3.54,38.31 5.92,40.17 146.72,28.81 269.76,123.67 336.89,252.31 4.46,8.56 30.4,-12.01 34.35,-3.17 2.46,5.49 16.54,26.32 14.12,36.17 -2.38,9.72 -25.65,17.56 -24.2,21.46 19.75,52.91 30.58,110.22 30.58,170.03 0,94.55 -27.01,182.8 -73.71,257.43 -2.89,4.62 19.07,16.17 20.01,29.25 1.13,15.8 -25.11,40.45 -29.85,40.96 -11.63,1.24 -24.62,-21.72 -32.19,-12.83 -89.12,104.7 -221.9,171.13 -370.19,171.13 -13.44,0 -26.76,-0.55 -39.91,-1.61 -5.79,-0.47 -1.47,23.76 -10.74,27.89 -14.3,6.37 -45.43,-3.5 -54.12,-5 -9.14,-1.58 3.04,-31.86 -5.92,-33.94 -148.43,-34.57 -270.74,-137.19 -332.26,-273.17 -2.26,-4.98 -22.07,6.23 -33.44,-0.1 -15.39,-8.57 -17.66,-40.54 -20.17,-47.55 -4.83,-13.48 29.96,-15.54 26.31,-29.54 -10.22,-39.25 -15.68,-80.45 -15.68,-122.91 0,-104.12 32.75,-200.59 88.5,-279.67 6.73,-9.55 -26.78,-31.22 -19.4,-40.24 4.69,-5.73 16.7,-21.83 25.17,-26.34 8.77,-4.67 35.72,15.4 38.7,12.26 88.56,-93.56 213.95,-151.94 352.96,-151.94z"/>
  <g id="_1561667960736">
   <circle class="fil1" cx="564.42" cy="173.06" r="27.08"/>
   <circle class="fil2 str1" cx="564.42" cy="173.06" r="9.89"/>
  </g>
  <g id="_1561327338624">
   <circle class="fil1" cx="708.92" cy="154.03" r="27.08"/>
   <circle class="fil2 str1" cx="708.92" cy="154.03" r="9.89"/>
  </g>
  <g id="_1561327335776">
   <circle class="fil1" cx="853.43" cy="173.06" r="27.08"/>
   <circle class="fil2 str1" cx="853.43" cy="173.06" r="9.89"/>
  </g>
  <g id="_1561327335584">
   <circle class="fil1" cx="988.08" cy="228.83" r="27.08"/>
   <circle class="fil2 str1" cx="988.08" cy="228.83" r="9.89"/>
  </g>
  <g id="_1561327334080">
   <circle class="fil1" cx="1103.71" cy="317.56" r="27.08"/>
   <circle class="fil2 str1" cx="1103.71" cy="317.56" r="9.89"/>
  </g>
  <g id="_1561327331488">
   <circle class="fil1" cx="1192.44" cy="433.19" r="27.08"/>
   <circle class="fil2 str1" cx="1192.44" cy="433.19" r="9.89"/>
  </g>
  <g id="_1561327325568">
   <circle class="fil1" cx="1248.21" cy="567.84" r="27.08"/>
   <circle class="fil2 str1" cx="1248.21" cy="567.84" r="9.89"/>
  </g>
  <g id="_1561755728976">
   <circle class="fil1" cx="1267.24" cy="712.35" r="27.08"/>
   <circle class="fil2 str1" cx="1267.24" cy="712.35" r="9.89"/>
  </g>
  <g id="_1561755722032">
   <circle class="fil1" cx="1248.21" cy="856.85" r="27.08"/>
   <circle class="fil2 str1" cx="1248.21" cy="856.85" r="9.89"/>
  </g>
  <g id="_1561755721520">
   <circle class="fil1" cx="1192.44" cy="991.5" r="27.08"/>
   <circle class="fil2 str1" cx="1192.44" cy="991.5" r="9.89"/>
  </g>
  <g id="_1561755721168">
   <circle class="fil1" cx="1103.71" cy="1107.13" r="27.08"/>
   <circle class="fil2 str1" cx="1103.71" cy="1107.13" r="9.89"/>
  </g>
  <g id="_1561755719600">
   <circle class="fil1" cx="988.08" cy="1195.86" r="27.08"/>
   <circle class="fil2 str1" cx="988.08" cy="1195.86" r="9.89"/>
  </g>
  <g id="_1561755719152">
   <circle class="fil1" cx="853.43" cy="1251.64" r="27.08"/>
   <circle class="fil2 str1" cx="853.43" cy="1251.64" r="9.89"/>
  </g>
  <g id="_1561755718832">
   <circle class="fil1" cx="708.92" cy="1270.66" r="27.08"/>
   <circle class="fil2 str1" cx="708.92" cy="1270.66" r="9.89"/>
  </g>
  <g id="_1561755716208">
   <circle class="fil1" cx="564.42" cy="1251.64" r="27.08"/>
   <circle class="fil2 str1" cx="564.42" cy="1251.64" r="9.89"/>
  </g>
  <g id="_1561755708496">
   <circle class="fil1" cx="429.76" cy="1195.86" r="27.08"/>
   <circle class="fil2 str1" cx="429.76" cy="1195.86" r="9.89"/>
  </g>
  <g id="_1561755701232">
   <circle class="fil1" cx="314.13" cy="1107.13" r="27.08"/>
   <circle class="fil2 str1" cx="314.13" cy="1107.13" r="9.89"/>
  </g>
  <g id="_1561755731568">
   <circle class="fil1" cx="225.41" cy="991.5" r="27.08"/>
   <circle class="fil2 str1" cx="225.41" cy="991.5" r="9.89"/>
  </g>
  <g id="_1561755731600">
   <circle class="fil1" cx="169.63" cy="856.85" r="27.08"/>
   <circle class="fil2 str1" cx="169.63" cy="856.85" r="9.89"/>
  </g>
  <g id="_1561325986176">
   <circle class="fil1" cx="150.61" cy="712.35" r="27.08"/>
   <circle class="fil2 str1" cx="150.61" cy="712.35" r="9.89"/>
  </g>
  <g id="_1561325991520">
   <circle class="fil1" cx="169.63" cy="567.84" r="27.08"/>
   <circle class="fil2 str1" cx="169.63" cy="567.84" r="9.89"/>
  </g>
  <g id="_1561325989696">
   <circle class="fil1" cx="225.41" cy="433.19" r="27.08"/>
   <circle class="fil2 str1" cx="225.41" cy="433.19" r="9.89"/>
  </g>
  <g id="_1561325991424">
   <circle class="fil1" cx="314.13" cy="317.56" r="27.08"/>
   <circle class="fil2 str1" cx="314.13" cy="317.56" r="9.89"/>
  </g>
  <g id="_1561325989248">
   <circle class="fil1" cx="429.76" cy="228.83" r="27.08"/>
   <circle class="fil2 str1" cx="429.76" cy="228.83" r="9.89"/>
  </g>
 </g>
</svg>
