<?xml version="1.0" encoding="UTF-8"?>
<!DOCTYPE svg PUBLIC "-//W3C//DTD SVG 1.0//EN" "http://www.w3.org/TR/2001/REC-SVG-20010904/DTD/svg10.dtd">
<!-- Creator: CorelDRAW 2017 -->
<svg xmlns="http://www.w3.org/2000/svg" xml:space="preserve" width="11in" height="8.5in" version="1.0" style="shape-rendering:geometricPrecision; text-rendering:geometricPrecision; image-rendering:optimizeQuality; fill-rule:evenodd; clip-rule:evenodd"
viewBox="0 0 11000 8500"
 xmlns:xlink="http://www.w3.org/1999/xlink">
 <defs>
  <style type="text/css">
   <![CDATA[
    .str2 {stroke:black;stroke-width:111.11;stroke-miterlimit:2.61313}
    .str0 {stroke:black;stroke-width:41.67;stroke-miterlimit:2.61313}
    .str5 {stroke:black;stroke-width:104.17;stroke-miterlimit:2.61313}
    .str4 {stroke:black;stroke-width:83.33;stroke-miterlimit:2.61313}
    .str6 {stroke:#FEFEFE;stroke-width:13.89;stroke-miterlimit:2.61313}
    .str1 {stroke:#373435;stroke-width:6.94;stroke-miterlimit:2.61313}
    .str3 {stroke:black;stroke-width:6.94;stroke-miterlimit:2.61313}
    .fil0 {fill:none}
    .fil1 {fill:black}
   ]]>
  </style>
 </defs>
 <g id="Layer_x0020_1">
  <metadata id="CorelCorpID_0Corel-Layer"/>
  <rect class="fil0 str0" x="885.15" y="1336.71" width="1598.44" height="515.63" rx="100" ry="100"/>
  <rect class="fil0 str0" x="885.15" y="4860.15" width="1598.44" height="515.63" rx="100" ry="100"/>
  <rect class="fil0 str0" x="7966.4" y="1336.71" width="1598.44" height="515.63" rx="100" ry="100"/>
  <rect class="fil0 str0" x="7966.4" y="4860.15" width="1598.44" height="515.63" rx="100" ry="100"/>
  <circle class="fil1 str1" cx="1684.37" cy="3356.25" r="412.5"/>
  <path class="fil0 str2" d="M1684.37 1852.34l0 3007.81"/>
  <circle class="fil1 str3" cx="8765.62" cy="4276.25" r="412.5"/>
  <path class="fil0 str2" d="M8765.62 1852.34l0 3007.81"/>
  <path class="fil0 str2" d="M1684.37 3356.25l1968.5 0"/>
  <g id="_2431415341088">
   <path class="fil0 str2" d="M8262.92 2897.64l0.4 542.3"/>
   <path class="fil0 str2" d="M8072.29 3168.79l190.83 0"/>
   <path class="fil0 str2" d="M8072.29 2849.09c-196.7,0 0,0 -196.7,0 1.83,-70.26 0,-90.32 0,-137.72 -227.62,0 -659.2,0 -777.53,0 0,27.35 0,26.74 0,123.55 -29.27,0 -72.92,0 -145.83,0 0,424.76 0,367.59 0,899.28 117.2,0 496.26,0 765.6,0 86.08,-121.52 119.29,-168.41 172.16,-243.05 108.13,0 135.15,0 182.29,0 6.57,-293.99 0,-190.42 0,-642.06z"/>
   <path class="fil0 str2" d="M7671.25 2711.37l0 -162.04"/>
   <path class="fil0 str2" d="M7874.35 2546.59l-772.3 0"/>
   <path class="fil0 str2" d="M7312.76 2711.37l0 -164.77"/>
  </g>
  <g id="_2431415338880">
   <path class="fil0 str4" d="M5166.15 2389.91l266.41 0 1065.65 430.3 444.02 0 0 927.65 -445.8 0 -1063.87 418.14 -266.41 0 0 -1776.08zm0 666.03l-303.27 0 0 444.02 303.27 0 0 -444.02z"/>
   <g>
    <g>
     <circle class="fil0 str0" cx="6141.62" cy="3099.15" r="55.1"/>
     <path class="fil0 str0" d="M6045.34 3013.38l-10.5 -33.59 52.12 -31.16 24.63 25.13 22.57 -3.32 16.34 -31.19 58.89 14.78 0.09 34.98 16.81 13.94 34.69 -10.61 31.17 52.12 -25.13 24.63 3.29 22.55 31.19 16.34 -14.62 58.89 -35.37 -0.34 -13.62 18.33 10.5 33.58 -52.1 31.17 -24.64 -25.13 -22.56 3.34 -16.34 31.2 -58.89 -14.81 0.35 -35.2 -17.24 -13.72 -34.67 10.61 -31.17 -52.1 25.13 -24.63 -3.33 -22.58 -31.19 -16.34 14.62 -58.89 35.37 0.35 13.61 -18.33z"/>
    </g>
    <g>
     <circle class="fil0 str0" cx="5766.79" cy="3369.38" r="85.21"/>
     <path class="fil0 str0" d="M5617.91 3236.75l-16.23 -51.94 80.6 -48.18 38.09 38.86 34.89 -5.13 25.28 -48.24 91.06 22.87 0.13 54.09 26 21.56 53.64 -16.4 48.2 80.6 -38.86 38.09 5.09 34.87 48.24 25.27 -22.61 91.07 -54.7 -0.54 -21.07 28.34 16.23 51.94 -80.56 48.2 -38.1 -38.86 -34.88 5.17 -25.28 48.24 -91.06 -22.91 0.54 -54.44 -26.67 -21.22 -53.61 16.4 -48.2 -80.56 38.86 -38.09 -5.15 -34.92 -48.24 -25.27 22.61 -91.06 54.7 0.53 21.05 -28.34z"/>
    </g>
   </g>
  </g>
  <rect class="fil0 str4" x="3652.88" y="3055.92" width="1200" height="1432.06"/>
  <g id="_2431415339200">
   <circle class="fil0 str0" cx="4283.45" cy="3769.09" r="99.95"/>
   <path class="fil0 str0" d="M4108.81 3613.52l-19.04 -60.92 94.54 -56.52 44.69 45.58 40.93 -6.02 29.65 -56.58 106.81 26.82 0.15 63.45 30.5 25.29 62.91 -19.24 56.54 94.54 -45.58 44.69 5.97 40.91 56.58 29.65 -26.52 106.82 -64.17 -0.63 -24.71 33.24 19.04 60.92 -94.5 56.55 -44.69 -45.59 -40.92 6.06 -29.65 56.58 -106.82 -26.87 0.63 -63.85 -31.28 -24.89 -62.89 19.23 -56.54 -94.5 45.58 -44.69 -6.03 -40.96 -56.58 -29.64 26.52 -106.82 64.17 0.63 24.69 -33.24z"/>
  </g>
  <path class="fil0 str4" d="M8765.62 4276.25l-3912.74 0"/>
  <g id="_2431415336064">
   <circle class="fil0 str5" cx="7497.47" cy="3255.01" r="244.26"/>
   <path class="fil1 str6" d="M7339.41 3302.43l316.13 -363.55 -126.45 268.71 126.45 0 -316.13 363.55 126.45 -268.71 -126.45 0z"/>
  </g>
 </g>
</svg>
