<?xml version="1.0" encoding="UTF-8"?>
<!DOCTYPE svg PUBLIC "-//W3C//DTD SVG 1.1//EN" "http://www.w3.org/Graphics/SVG/1.1/DTD/svg11.dtd">
<!-- Creator: CorelDRAW 2017 -->
<svg xmlns="http://www.w3.org/2000/svg" xml:space="preserve" width="6.25in" height="3.125in" version="1.1" style="shape-rendering:geometricPrecision; text-rendering:geometricPrecision; image-rendering:optimizeQuality; fill-rule:evenodd; clip-rule:evenodd"
viewBox="0 0 6250 3125"
 xmlns:xlink="http://www.w3.org/1999/xlink">
 <defs>
  <style type="text/css">
   <![CDATA[
    .fil0 {fill:#373435}
    .fil1 {fill:#373435;fill-rule:nonzero}
   ]]>
  </style>
 </defs>
 <g id="Layer_x0020_1">
  <metadata id="CorelCorpID_0Corel-Layer"/>
  <path class="fil0" d="M2655.72 1641.08c-13.54,-7.42 -82.97,-14.84 -103.77,-15.17 -39.16,-0.69 -76.44,4.97 -115.93,2.11 -36.14,-2.51 -68.44,-11.63 -105.81,-15.1 -37.85,-3.54 -76.69,-5.65 -115.11,-5.72 -57.93,0 -171.48,2.18 -209.17,32.25 -20.4,16.27 -15.99,5.92 -39.57,20.69 -49.76,31.16 -49.28,92.8 -15.26,115.59 -4.08,4.09 -24.88,9.59 -31,11.44 -10.69,3.13 -22.84,6.39 -33.53,9.18 -41.77,10.75 -97.98,20.61 -142.93,30.83l-69.02 17.07c-84.11,21.84 -170.34,9.19 -222.47,-60.76 -3.67,-4.83 -5.55,-10.21 -9.95,-11.77 -8,-2.93 -8.48,0.89 -14.44,-6.54 28.15,-25.44 95.29,-28.43 136.89,-29.99 7.59,-0.28 17.94,-4.43 27.17,-6.26 21.46,-4.22 80.85,-8.65 88.6,-11.71 44.78,-17.28 129.95,-52.05 168.05,-70.01 38.26,-18.09 52.54,-25.79 101.33,-33.2 38.1,-5.78 72.69,-16.94 107.36,-28.44 68.2,-22.65 136.48,-43.68 204.36,-66 31.33,-10.27 41.28,-31.16 79.13,-55.31 42.67,-27.22 53.76,-23.06 110.7,-18.44 81.41,6.54 163.48,16.94 244.25,26.12 103.28,11.83 150.59,16.33 257.96,11.43 84.35,-3.8 158.26,-11.63 233.97,-35.78 138.52,-44.3 252,-110.22 361.48,-177.85 28.15,-17.35 54.5,-34.49 82.89,-51.57 88.51,-53.27 172.87,-94.22 265.13,-141.24 60.21,-30.62 120,-58.99 181.85,-88.52l68.28 -32.11c12.32,-6.19 11.91,-2.79 22.6,3.87 133.46,83.35 167.4,345.7 163.24,512.67l-97.89 24.02c-212.19,55.39 -445.51,137.57 -645.06,218.68 -116.01,47.15 -234.46,95.85 -342.07,150.83 -54.74,27.9 -108.01,54.36 -167.24,78.38 -86.96,35.18 -100.91,41.3 -194.89,8.85 -34.26,-11.77 -64.86,-17.01 -103.69,-17.76 -89.17,-1.84 -120.66,-6.74 -203.14,-44.76 -88.19,-40.76 -209.17,-63.21 -308.29,-61.72 -56.7,0.89 -55.47,4.01 -117.39,-2.11 -36.06,-3.54 -71.38,-10.48 -101.97,-21.85 -15.34,-5.71 -27.98,-12.52 -39,-21.29 -12.24,-9.72 -24.56,-16.32 -33.53,-28.3 -23.41,-31.37 -19.33,-66.68 13.54,-82.06 8.65,-3.95 14.03,-4.56 23.5,-7.28 12.56,-3.61 10.11,-15.85 68.04,-24.76 45.52,-7.02 190.89,-10.55 236.09,-4.36 36.39,4.97 68.04,13.27 106.79,16.87 37.12,3.4 80.76,5.38 117.56,0 50.26,-7.28 51.31,-12.11 111.36,-13.13z"/>
  <g>
   <path class="fil1" d="M1679.1 80.92l-94.35 787.64 0 0 -12.17 -17.96 -12.48 -17.44 -12.78 -16.91 -13.09 -16.38 -13.39 -15.85 -13.7 -15.32 -14.01 -14.79 -14.31 -14.26 -14.61 -13.74 -14.93 -13.2 -15.23 -12.68 -15.54 -12.15 -15.84 -11.62 -16.15 -11.09 -16.45 -10.57 -16.76 -10.04 -17.06 -9.51 -17.37 -8.98 -17.67 -8.45 -17.98 -7.93 -18.28 -7.4 -18.59 -6.87 -18.89 -6.34 -19.2 -5.81 -19.5 -5.28 -19.81 -4.75 -20.11 -4.23 -20.42 -3.7 -20.73 -3.17 -21.03 -2.64 -21.33 -2.11 -21.65 -1.58 635.43 -474.88zm-490.76 1657.42l-104.17 0 0 0 0.37 -44.94 1.11 -44.89 1.85 -44.82 2.58 -44.74 3.31 -44.66 4.04 -44.57 4.76 -44.46 5.49 -44.35 6.21 -44.24 6.93 -44.11 7.65 -43.97 8.36 -43.83 9.08 -43.68 9.78 -43.5 10.49 -43.34 11.2 -43.16 11.9 -42.97 12.6 -42.77 13.31 -42.57 14 -42.35 14.69 -42.13 15.38 -41.9 16.07 -41.65 16.76 -41.41 17.44 -41.15 18.13 -40.88 18.8 -40.61 19.49 -40.32 20.16 -40.03 20.83 -39.72 21.5 -39.42 22.17 -39.09 90.18 52.13 -21.32 37.61 -20.69 37.91 -20.04 38.21 -19.39 38.5 -18.74 38.78 -18.09 39.06 -17.44 39.32 -16.78 39.58 -16.12 39.83 -15.46 40.06 -14.8 40.3 -14.13 40.52 -13.46 40.74 -12.8 40.94 -12.12 41.14 -11.45 41.33 -10.77 41.51 -10.09 41.69 -9.41 41.85 -8.73 42.01 -8.04 42.15 -7.36 42.3 -6.66 42.42 -5.98 42.55 -5.28 42.66 -4.58 42.77 -3.89 42.87 -3.18 42.95 -2.48 43.04 -1.78 43.11 -1.07 43.17 -0.35 43.23 0 0zm172.41 935.81l-97.32 37.13 -10.94 -29.19 -10.6 -29.29 -10.26 -29.39 -9.93 -29.5 -9.58 -29.6 -9.24 -29.7 -8.9 -29.79 -8.56 -29.87 -8.22 -29.97 -7.87 -30.05 -7.53 -30.13 -7.18 -30.22 -6.83 -30.28 -6.49 -30.36 -6.15 -30.44 -5.8 -30.5 -5.45 -30.56 -5.1 -30.63 -4.76 -30.68 -4.41 -30.74 -4.06 -30.79 -3.7 -30.83 -3.36 -30.88 -3.01 -30.93 -2.65 -30.96 -2.3 -31.01 -1.95 -31.04 -1.59 -31.07 -1.24 -31.1 -0.89 -31.13 -0.53 -31.15 -0.18 -31.17 104.17 0 0.17 29.98 0.52 29.96 0.85 29.94 1.2 29.91 1.54 29.89 1.87 29.86 2.22 29.82 2.55 29.78 2.89 29.75 3.23 29.71 3.56 29.66 3.91 29.61 4.24 29.57 4.57 29.51 4.91 29.45 5.25 29.4 5.57 29.34 5.91 29.26 6.25 29.2 6.57 29.14 6.91 29.06 7.24 28.98 7.57 28.91 7.9 28.82 8.23 28.74 8.56 28.65 8.89 28.56 9.22 28.47 9.54 28.37 9.87 28.28 10.19 28.17 10.52 28.07zm81.93 360.95l-551.83 -569.92 21.62 1.88 21.4 1.31 21.19 0.74 20.97 0.17 20.75 -0.4 20.54 -0.97 20.31 -1.54 20.09 -2.11 19.88 -2.68 19.66 -3.26 19.44 -3.82 19.23 -4.39 19.01 -4.96 18.8 -5.54 18.57 -6.11 18.36 -6.67 18.14 -7.25 17.92 -7.81 17.71 -8.39 17.48 -8.96 17.27 -9.53 17.05 -10.09 16.83 -10.67 16.62 -11.24 16.4 -11.81 16.18 -12.38 15.96 -12.95 15.75 -13.52 15.53 -14.09 15.31 -14.66 15.1 -15.23 14.87 -15.8 0 0 -32.12 792.65z"/>
  </g>
 </g>
</svg>
