<?xml version="1.0" encoding="UTF-8"?>
<!DOCTYPE svg PUBLIC "-//W3C//DTD SVG 1.1//EN" "http://www.w3.org/Graphics/SVG/1.1/DTD/svg11.dtd">
<!-- Creator: CorelDRAW 2017 -->
<svg xmlns="http://www.w3.org/2000/svg" xml:space="preserve" width="33.3333in" height="23.6111in" version="1.1" style="shape-rendering:geometricPrecision; text-rendering:geometricPrecision; image-rendering:optimizeQuality; fill-rule:evenodd; clip-rule:evenodd"
viewBox="0 0 33333.33 23611.11"
 xmlns:xlink="http://www.w3.org/1999/xlink">
 <defs>
  <style type="text/css">
   <![CDATA[
    .str0 {stroke:#8888AA;stroke-width:55.56;stroke-miterlimit:2.61313;stroke-opacity:0.1}
    .fil0 {fill:none}
   ]]>
  </style>
 </defs>
 <g id="Layer_x0020_1">
  <metadata id="CorelCorpID_0Corel-Layer"/>
  <g id="_2250832444144">
   <path class="fil0 str0" d="M5309.82 19416.58c26.07,424.69 -117.35,600.33 -770.57,590.36 -653.22,-9.97 -1758.3,-945.61 -2056.91,-1373.35 -211.28,-302.65 -357.26,-945.35 -62.65,-1153.17 379.75,-267.87 1067.42,-52.4 1367.64,109.17 634.65,341.56 1496.42,1402.31 1522.49,1827z"/>
   <path class="fil0 str0" d="M6307.18 19951.45c0,779.63 -366.57,826.35 -1443.69,826.35 -1077.11,0 -2802.32,-1354.85 -3279.09,-1971.67 -464.89,-601.43 -728.7,-1734.94 -367.05,-2083.81 585.57,-564.86 1383.98,-333.1 2137.14,-29.5 998.99,402.69 2952.69,2479.01 2952.69,3258.64z"/>
   <path class="fil0 str0" d="M7028.07 20192.98c0,958.83 -635.53,980.06 -1899.83,1097.07 -1264.28,117.02 -3591.32,-1599.97 -4188.21,-2350.32 -894.87,-1124.96 -1163.42,-2419.62 -718.64,-2848.67 720.17,-694.7 1998.86,-439.17 3099.14,120.63 1180.65,600.68 3707.54,3022.45 3707.54,3981.29z"/>
   <path class="fil0 str0" d="M-559.5 15151.01c922.13,-621.65 2367.46,-301.05 3625.46,338.97 1470,747.9 4616.2,3763.2 4616.2,4957.04 0,1193.83 -791.29,1220.25 -2365.44,1365.95 -1574.14,145.7 -4471.85,-1991.81 -5214.67,-2926.35 -262.11,-329.77 -481.11,-671.48 -655.5,-1008.17"/>
   <path class="fil0 str0" d="M-562.95 14119.35c1024.38,-229.06 2291.55,112.74 3354.26,842.08 768.34,527.33 2010.36,1484.61 3130.2,2613 1319.14,1329.23 2593.37,2644.64 2593.37,3165 0,962.08 -505.47,1403.41 -2960.56,1500.85 -2455.08,97.44 -5227.4,-1972.92 -6104.83,-3075.94"/>
   <path class="fil0 str0" d="M-550.51 13353.33c1090.44,-243.83 2526.31,617.16 3657.53,1393.51 817.88,561.32 2040.59,1853.78 3232.63,3054.93 1404.2,1414.94 2971.88,2467.18 2971.88,3021.09 0,1024.12 -1035.2,1580.9 -3362.75,1784.06 -2327.55,203.16 -5565.28,-1516 -6499.29,-2690.15"/>
   <path class="fil0 str0" d="M-550.52 12261.87c1496.24,-294.04 2915.35,1128.34 3982.22,2244.13 721.88,754.98 2179.81,2057.67 3435.02,3322.48 1478.61,1489.93 4002.53,2759.7 3986.93,3342.75 -24.86,929.25 -2109.2,1714.4 -4560.09,1928.33 -2450.9,213.93 -5661.73,-726.33 -6844.09,-2261"/>
   <path class="fil0 str0" d="M14327.87 13257.65c309.03,88.35 1188.59,471.81 982.25,1224.72 -433.86,1583.06 -3618.91,1745.33 -4002.38,1739.48 -653.22,-9.96 -2482.43,-626.4 -3622.89,-1895.35 -403.8,-449.29 -815.58,-1165.53 -832.77,-1867.47 -26.46,-1080.73 524.71,-2144.66 695.55,-2280.98 553.73,-441.86 2260.57,1849.18 2896.34,2097.74 245.26,95.88 775.21,398.74 1369,545.15 1031.33,254.28 2255.3,362.48 2514.91,436.7z"/>
   <path class="fil0 str0" d="M14861.26 12533.17c362.53,127.06 1655.41,753.22 1413.34,1836.17 -509,2277.01 -4444.44,2535.26 -4894.31,2526.86 -766.33,-14.31 -3198.17,-739.42 -4536.11,-2564.62 -473.73,-646.24 -745.54,-1713.76 -765.69,-2723.39 -31.04,-1554.48 640.44,-2786.51 1226.13,-2982.58 861.8,-288.5 2453.28,2050.7 2987.75,2495.3 245.29,204.04 934.32,672.98 1630.93,883.55 1209.91,365.75 2633.43,421.95 2937.97,528.7z"/>
   <path class="fil0 str0" d="M15377.87 12152.33c407.94,152.19 1614.27,604.11 1528.3,2050.63 -165.37,2782.44 -5274.88,3223.69 -5781.1,3213.63 -862.35,-17.13 -3290.45,-912.18 -4796.06,-3098.78 -533.07,-774.19 -947.48,-1923.11 -809.33,-3124.93 201.2,-1750.43 956.44,-3027.1 1615.53,-3261.99 969.79,-345.62 2276.02,940.51 3150.89,2355.55 193.89,313.61 1051.43,924.3 1835.31,1176.57 1361.54,438.17 2913.78,561.48 3256.45,689.32z"/>
   <path class="fil0 str0" d="M15695.5 11830.88c438.72,174.81 1823.09,693.96 1730.65,2355.61 -177.84,3196.27 -5753.76,3591.27 -6298.17,3579.72 -927.42,-19.68 -3706.56,-1060.3 -5325.8,-3572.07 -573.31,-889.32 -801.48,-1910.85 -652.92,-3291.4 216.38,-2010.76 1097,-3154.17 1805.81,-3423.99 1042.99,-397.02 2447.81,558.4 3388.7,2183.87 208.52,360.24 1006.49,1086.63 1849.53,1376.42 1464.29,503.34 3133.69,645 3502.21,791.84z"/>
   <path class="fil0 str0" d="M16193.3 11532.93c483.14,211.02 1799.6,513.68 1719.53,2520.63 -135.61,3398.78 -6100.46,4062.05 -6700.02,4048.12 -1021.37,-23.74 -4103.93,-993.83 -5865.3,-4038.89 -743.23,-1284.89 -703.02,-2295.87 -433.19,-3948.63 325.28,-1992.46 872.55,-2520.81 1653.16,-2846.55 1148.62,-479.3 2397.49,65.07 2837.12,516.74 343.01,352.42 1680.15,2293.68 2608.59,2643.52 1612.61,607.63 3774.27,927.81 4180.11,1105.07z"/>
   <path class="fil0 str0" d="M16364.83 11100.3c523.68,238.09 2075.19,815.67 2146.12,2521.48 95.88,2305.5 -4036.23,5079.78 -7258.85,4790.64 -1102.99,-98.96 -4448.44,-1121.35 -6357.67,-4557.1 -805.62,-1449.75 -676.21,-2387.99 -270.7,-4231.56 327.74,-1489.96 1237.67,-2562.98 1816.79,-2776.79 899.68,-332.15 1955.55,-29.15 2590.57,259.9 496.08,225.81 1995.22,2438.84 3026.44,2908.13 1708.98,777.7 3867.41,885.31 4307.3,1085.3z"/>
   <path class="fil0 str0" d="M16984.36 10954.57c567.98,255.25 2090.03,720.87 2191.82,1953.15 203.65,2465.61 -4246.97,6249.7 -7737.08,5886.4 -488,-50.8 -1438.59,-174.68 -2104.61,-482.65 -1865.73,-862.69 -3796.14,-2659.46 -4790.92,-4403.16 -883.57,-1548.76 -658.38,-2686.85 -156.88,-4648.64 405.18,-1585.01 1280.22,-2493.07 1908.35,-2722.28 975.78,-356.09 1947,-149.32 2635.73,160.57 538.03,242.06 2263.45,2589.91 3381.9,3093.02 1853.57,833.8 4194.6,949.17 4671.7,1163.59z"/>
   <path class="fil0 str0" d="M17617.88 10506.56c412.7,86.17 1146.38,271.36 1927.55,149.29 757.66,-118.4 959.5,-2241.69 2251.25,-2740.56 1028.77,-397.3 2966.34,821.76 3012.15,1001.37 58.3,228.66 917.76,888.14 -131.1,1619.37 -1125.75,784.85 -3665.41,1214.54 -4078.59,1784.15 -674.65,930.06 -2019.66,3562.45 -3335.2,4554.41 -1798.06,1355.8 -3464.64,2133.44 -5591.58,2282.44 -526.89,36.91 -1859.63,-236.42 -2576.67,-565.47 -2008.74,-921.8 -4002.53,-3193.07 -5123.29,-5006.61 -1003.49,-1623.78 -696.16,-2387.82 57.19,-4417.23 635.08,-1710.77 1589.67,-2750.99 2265.93,-2995.92 1050.59,-380.51 1838.19,-203.28 2576.8,134.29 1300.13,594.22 2579.92,2581.04 3784.09,3118.66 1995.65,890.95 4081.5,898.06 4961.47,1081.81z"/>
   <path class="fil0 str0" d="M16971.04 9615.89c425.85,91.61 1576.98,-119.54 2250.08,-934.98 979.86,-1187.08 40.63,-4011.7 881.41,-4169.33 992.02,-185.97 1510.3,1415.29 3294.72,2320.05 1685.63,854.67 4533.17,2590.94 3618.13,3611.02 -637.41,710.59 -4784.26,1927.68 -5478.22,2430.73 -831.45,602.72 -2520.55,2977.75 -3694.88,3819.98 -4109,2946.99 -4705.54,2747.31 -7009.72,2808.96 -544.93,14.58 -1420.3,-517.5 -2634.2,-1247.93 -1558.32,-937.68 -3375.36,-2816.64 -4648.93,-4622.62 -748.03,-1060.74 -1019.12,-1752.22 -241.71,-3910.09 655.35,-1819.08 1940.38,-3559.7 2638.22,-3820.14 1084.13,-404.6 2320.05,-222.29 2882.77,-6.36 1384.53,531.26 2726.61,2396.38 3900.86,3048.82 1981.51,1100.97 3333.41,476.52 4241.46,671.88z"/>
   <path class="fil0 str0" d="M17842.29 8499.46c615.32,-302.57 601.91,-1499.35 545.64,-2637.54 -85.66,-1732.58 -1996.26,-3367.26 -1162.09,-4056.04 933.07,-770.43 2834.26,534.86 4473.28,2067.02 970.41,907.14 1775.17,1976.87 2473.04,2448.77 1165.79,788.31 2421.41,1449.45 3439.59,1992.81 1542.17,822.98 2035.46,263.94 2133.83,789 38.26,204.23 -411.31,1562.7 -1382.8,2176.63 -1280.98,809.51 -3600.98,811.71 -4039.98,996.72 -3255.42,1371.88 -3732.96,2410.31 -5784.81,4283.87 -1604.88,1465.41 -2881.3,2088.49 -3744.23,2578.99 -1406.82,799.67 -2044.44,876.23 -3665.49,919.07 -618.52,16.35 -1718.45,-423.45 -2990.02,-1399.47 -1652.12,-1268.15 -3868.59,-3481.84 -5314.17,-5507.11 -849.07,-1189.56 -1368.06,-1405.72 695.06,-4745.34 1141.2,-1847.3 1705.35,-2823.71 2882.73,-3115.77 1272.97,-315.79 1875.29,-0.69 2514.02,241.45 1571.55,595.78 2436.2,2128.09 3769.06,2859.76 2249.15,1234.67 4360.26,499.13 5157.34,107.19z"/>
   <path class="fil0 str0" d="M-488.36 9473.31c715.2,440.71 1969.23,1527.4 3510.35,-1016.77 1124.99,-1857.2 2264.65,-3383 3442,-3675.06 1272.97,-315.77 1862.88,111.17 2501.61,353.31 1571.54,595.78 2572.15,1933.29 3893.33,2685.76 1404.01,799.65 2602.02,781.13 3417.35,405.46 1276.91,-588.34 1159.39,-1166.11 968.2,-2289.52 -296.95,-1745.02 -2818.39,-3676.28 -1236.65,-5149.76 1675.79,-1561.1 4338.11,1106.59 6188.41,2489.6 1064,795.28 2172.9,2113.69 2870.75,2585.58 1165.79,788.31 2718.66,1782.46 3837.31,1259.41 1678.24,-784.7 2023.6,-1144.55 3861.41,-1684.9 640.19,-188.22 1149.33,-558.26 1897.21,-1016.87"/>
   <path class="fil0 str0" d="M1264.51 7267.6c-807.76,-77.48 -978.25,-856.55 -1010.11,-1304.04 -31.85,-447.48 300.62,-1097.7 618.5,-1511.32 538.52,-700.67 1743.45,-1082.35 2303.48,-501.94 322.68,334.42 89.04,1311.2 -54.92,1620.23 -304.34,653.29 -1049.2,1774.55 -1856.96,1697.07z"/>
   <path class="fil0 str0" d="M-550.51 5421.64c210.52,-632.73 769.38,-1242.85 1039.07,-1584.19 169.87,-215.03 974.74,-1130.49 2008.6,-1496.33 1056.72,-373.94 2002.61,155.73 2691.57,-138.3 1300.51,-555.02 2633.39,-1503.95 3862.62,-2384.04 221.3,-158.45 391.11,-414.07 530.57,-722.28m4935.27 7.4c-276.67,201.34 -565.3,533.46 -860.32,1104.81 -1167.32,2260.7 1553.89,4960.88 1068.23,5993.22 -566.49,1204.16 -3246.51,-824.19 -3819.34,-1203.67 -1238.99,-820.78 -1640.81,-1113.45 -2448.23,-1436.38 -1254.41,-501.69 -1847.33,-595.91 -2786.06,-305.8 -591.33,182.75 -1623.23,1948.84 -1769.45,2259.03 -462.01,980.06 -1795.57,2848.17 -2644.98,2719.94 -849.41,-128.22 -1349.05,-390.14 -1807.56,-1459.18"/>
   <path class="fil0 str0" d="M18919.66 20601.96c-644.56,69.3 -662.93,-562.15 -550.26,-831.75 112.67,-269.61 586.03,-621.14 1053.5,-852.6 737.36,-365.1 1207.22,-676.31 1545.34,-290.67 262.71,299.65 -159.52,950.79 -514.77,1222.52 -572.43,437.85 -889.26,683.21 -1533.81,752.5z"/>
   <path class="fil0 str0" d="M18318.62 21514.34c-1406.56,143.31 -1508.81,-752.38 -1262.94,-1309.93 245.87,-557.54 1163.91,-1433.64 2184.04,-1912.31 1609.07,-755 2600.3,-1441.18 3083.6,-973.78 373.04,360.75 -677.73,2450.76 -1452.96,3012.69 -1249.18,905.46 -1145.17,1040.02 -2551.73,1183.33z"/>
   <path class="fil0 str0" d="M17777.22 22268.97c-2232.63,222.08 -2052.87,-1016.81 -1662.61,-1880.81 390.26,-864.01 2127.13,-2110.48 3695.05,-2955.34 2554.17,-1376.31 4333.46,-2795.7 5213.11,-2213.15 318.68,211.06 -1463,1961.02 -2281.44,3226.98 -1485.66,2298.02 -2731.48,3600.24 -4964.11,3822.32z"/>
   <path class="fil0 str0" d="M34662.93 19711.01c-550.45,-646.91 -2789.93,-2692.33 -3397.61,-3158.15 -763.04,-584.91 -1884.06,-1676.17 -3092.77,-1477.77 -2115,347.17 -4257.51,2266.63 -4618.89,2887.68 -2399.87,4124.19 -4002.33,4532.56 -5711.38,5019.19 -2729.91,777.3 -3632.38,-1458.68 -2690.02,-2544.72 942.36,-1086.03 3543.3,-2955.17 5757.35,-4463.72 1122.82,-765.05 1641,-1171.05 3387.04,-1808.23 44.52,-16.25 1006.07,-318.57 1052.54,-328.3 916.3,-191.91 2177.91,485.46 3199.54,205.93 1293.39,-353.87 2574.66,-1840.61 3590.52,-2271.98 1249.09,-530.39 2058.94,-861.7 2523.7,-824.91"/>
   <path class="fil0 str0" d="M34662.94 21600.14c-898.48,-2386.89 -1919.96,-3487.75 -3397.63,-4624.71 -761.97,-586.3 -1884.07,-1502.17 -3092.75,-1303.78 -2115,347.17 -4091.41,2090.3 -4507.06,2676.39 -2598.72,3664.33 -4114.17,4768.74 -5823.22,5255.35 -2729.91,777.28 -4701.25,-1806.69 -3858.31,-2768.44 842.94,-961.73 4686.74,-3800.31 6900.79,-5308.87 1122.82,-765.02 1926.85,-1456.92 3672.89,-2094.08 44.53,-16.23 1403.78,-244 1450.25,-253.72 916.3,-191.89 2041.19,75.32 3062.81,-204.2 1293.39,-353.87 2251.54,-1616.91 3267.39,-2048.28 1249.09,-530.39 1860.08,-588.28 2324.84,-551.47"/>
   <path class="fil0 str0" d="M30163.83 26594.81c1177.78,-392.3 2029.6,-843.97 2656.41,-1574.48 389.92,-454.42 902.04,-2146.13 883.33,-3025.28 -55.89,-2625.04 -1397.06,-3705.07 -2110.84,-4377.56 -699.74,-659.27 -2199.07,-1684.38 -3407.76,-1485.98 -2115,347.17 -4016.82,2003.3 -4432.47,2589.39 -2598.72,3664.33 -4396.81,5254.05 -6133.93,5628.21 -2397.71,516.48 -3060.25,-396.18 -4434.18,-1839.15 -615.09,-646 -1256.14,-1080.63 -1238.68,-1351.85 14.99,-233.08 1536.56,-842.17 2524.76,-1460.87 750.58,-469.94 1890.06,-1157.04 2666.7,-1750.43 1438.35,-1098.88 2416.02,-1862.43 3461.75,-2818.43 1002.72,-916.68 2126.51,-1763.22 3896.61,-2330.22 1139.19,-364.91 2611.87,-5.19 4500.61,-731.37 1243.68,-478.15 1704.67,-1380.77 2720.53,-1812.12 1249.09,-530.39 2481.51,-588.28 2946.27,-551.5"/>
   <path class="fil0 str0" d="M26488.92 24204.96c-980.12,81.72 -1955.48,-475.15 -1519.68,-1664.46 435.8,-1189.32 929.72,-1645.25 1948.36,-2480.74 857.49,-703.31 1791.38,-228.89 2129.48,156.76 262.7,299.63 406.32,1339.55 -402.91,2539.94 -400.88,594.63 -1175.13,1366.78 -2155.25,1448.5z"/>
   <path class="fil0 str0" d="M26203.06 24913.38c-982.17,27.9 -2552.06,-350.86 -1942.25,-2198.89 609.8,-1848.02 1480,-2451.79 2507.65,-3276.16 1093.62,-877.31 2485.11,-390.89 2962.19,455.04 646.37,1146.13 108.02,2246.83 -701.21,3447.22 -400.86,594.62 -1262.11,1528.35 -2826.38,1572.79z"/>
   <path class="fil0 str0" d="M25606.5 25348.39c-981.89,35.89 -2539.62,-674.01 -1929.82,-2522.04 609.8,-1848.02 1821.72,-3090.47 2979.92,-3823.02 1490.07,-942.46 3094.13,-80.18 3571.19,765.75 646.37,1146.12 356.58,2308.99 -813.07,3907.08 -423.53,578.67 -1572.83,1590.52 -3808.23,1672.22z"/>
   <path class="fil0 str0" d="M25531.93 25758.53c-981.88,35.87 -2987.05,-636.73 -2377.25,-2484.75 609.8,-1848.02 1821.74,-3600.04 2979.93,-4332.59 1490.07,-942.45 3446.27,-954.21 4341.76,554.47 789.68,1330.43 505.71,2681.85 -663.93,4279.93 -423.52,578.66 -2045.13,1901.25 -4280.51,1982.94z"/>
   <path class="fil0 str0" d="M24500.36 25944.96c-982.34,18.23 -2502.34,-537.3 -1793.11,-2584.18 709.23,-2046.87 2158.95,-3902.3 3278.21,-4693.03 1738.63,-1228.29 3881.29,-929.34 4776.76,579.33 789.67,1330.41 670.65,3215.69 -651.5,4690.07 -2325.27,2593.03 -3487.02,1968.39 -5610.36,2007.8z"/>
   <path class="fil0 str0" d="M23617.94 26143.81c-973.83,-130.14 -2141.91,-537.3 -1432.68,-2584.18 709.23,-2046.87 2743.1,-4449.17 3862.35,-5239.88 1738.62,-1228.29 3864,-699.31 5124.75,989.48 781.23,1046.46 446.92,3513.98 -875.21,4988.35 -2325.27,2593.03 -4555.88,2129.98 -6679.21,1846.23z"/>
   <path class="fil0 str0" d="M23999.16 26574.26c-215.07,-13.66 -380.7,-47.09 -778.93,-132.17 -960.78,-205.27 -2514.76,-164.45 -1805.54,-2211.33 709.23,-2046.87 3414.25,-5344.02 4533.49,-6134.72 1738.61,-1228.28 4362.16,-1055.83 5472.76,1088.9 1143.04,2207.41 269.44,3688.53 -900.07,5286.64 -1245.11,1701.41 -3494.93,1990.04 -4946.51,2123.24"/>
   <path class="fil0 str0" d="M20500.54 26594.82c-363.99,-100.64 -880.51,-539.11 -142.28,-1593.49 773.15,-1104.25 3375.18,-5596.23 5353.78,-7091.72 1948.84,-1473 4724,-902.84 5994.75,1151.05 1111.96,1797.25 612.54,4197.96 -813.07,5572.49 -1425.27,1374.21 -1866.79,1492.92 -3293.51,1961.67"/>
   <path class="fil0 str0" d="M15280.56 26596.49c1525.14,-473.5 2223.98,-473.2 3287.99,-1197.44 553.55,-376.79 2014.45,-1267.36 2993.3,-2803.21 1368.4,-2147.07 3050.78,-4357.34 4386.33,-5133.65 2236.05,-1299.74 4703.64,-451.71 6056.89,1548.76 1198.96,1772.39 678.74,4355.56 -800.65,5895.63 -1127.37,1173.62 -1301.29,1219.5 -2728.01,1688.24"/>
   <path class="fil0 str0" d="M-550.51 21923.37c321.39,256.41 1069.33,1172.74 2382.95,1528.21 1409.08,381.29 3435.38,190.28 5250.92,86.12 909.87,-52.19 1985.33,-111.59 2824.34,-419.53 729.03,-267.57 1805.38,-285.85 2474.75,44.44 1180.53,582.53 2420.85,2022.54 3328.36,2082.93 1186.98,78.97 2021.22,-197.24 2236.32,-343.65 553.54,-376.77 2252.84,-834.95 3291.57,-2330.92 1478.64,-2129.5 3286.93,-4581.06 4622.48,-5357.36 2236.04,-1299.74 4795.85,-631.07 6380.03,1586.05 1548.41,2167.07 877.59,4579.28 -465.07,6131.76 -1064.54,1230.9 -1071.36,1194.64 -2498.08,1663.4"/>
   <path class="fil0 str0" d="M-550.5 8202.3c321.38,256.41 625.67,576.67 1289.24,782.49 751.15,232.99 1471.68,-168.42 2516.65,-1652.13 524.77,-745.1 1503.22,-3189.11 3813.66,-3248.14 2101.78,-53.7 4769.59,2369.48 5394.2,2778.1 1118.38,731.65 2129.39,1007.71 2961.72,619.18 1717.63,-801.79 -166.19,-3499.83 -609.81,-4255.22 -339.08,-577.36 -837.83,-2342.28 625.66,-3471.24 1120.3,-864.21 3263.36,-402.85 5349.55,1400.63 1990.13,1720.46 3107.93,2918.94 5653.43,4355.01 1283.06,723.85 2102.2,499.62 3642.07,37.29 1652.03,-496.02 2596.13,-532.66 4577.07,-2430.91"/>
   <path class="fil0 str0" d="M1663.59 26584.32c-17.56,-248.83 104.14,-636.52 -261.75,-971.37 -382.67,-350.2 -846.13,-656.65 -1148.01,-1050.6l-804.33 -1049.62"/>
   <path class="fil0 str0" d="M9937.51 25504.34c-1214.25,124.64 -2205.82,993.47 -4070.83,971.07 -1865.01,-22.4 -2886.92,-440.31 -2875.15,-961.83 12.44,-551.2 1178.07,-1205.25 1781.44,-1323.97 1426.85,-280.75 4066.4,77.69 4835.19,183.73 836.58,115.39 1304.05,-440.71 2146.73,-201.45 822.22,233.45 1280.43,937.6 1601.71,1217.83 375.69,327.68 409.77,968.81 -347.97,949.3 -937.31,-24.14 -2249.65,-918.99 -3071.11,-834.67z"/>
   <path class="fil0 str0" d="M34662.93 15987.23c-742.56,-229.66 -739.17,-745.61 -717.71,-900.8 56.93,-411.63 449.47,-730.06 717.71,-768.85"/>
   <path class="fil0 str0" d="M34662.93 17107.51c-742.56,-229.66 -2253.63,-1170.5 -2196.7,-2095.65 82.9,-1347.17 1928.46,-1811.34 2196.7,-1850.13"/>
   <path class="fil0 str0" d="M34662.93 17815.93c-742.56,-229.66 -3210.79,-1855.56 -3128.83,-3027.78 115.1,-1646.41 2860.59,-2345.76 3128.83,-2384.55"/>
   <path class="fil0 str0" d="M34662.93 18611.36c-742.56,-229.66 -4396.83,-3111.24 -4321.97,-3935.07 109.93,-1209.77 2686.59,-2905.05 4321.97,-3018.41"/>
   <path class="fil0 str0" d="M34662.93 8705.84c-767.42,155.62 -4471.97,697.77 -4497.89,142.68 -70.16,-1502.24 2899.8,-2595.52 4497.89,-3143.89"/>
   <path class="fil0 str0" d="M32606.16 -890.36c-51.57,211.56 -166.71,411.41 -366.42,588.95 -630.03,560.06 -2073.23,2490.24 -3665.46,1930.84 -1735.23,-609.64 -1859.27,-1164.76 -1367.23,-2515.18"/>
   <path class="fil0 str0" d="M26261.82 -871.65c-411.17,560.37 -792.74,1101.14 -773.72,1554.89 43.5,1037.25 1550.07,1713.19 2763.04,2139.33 651.66,228.94 1941.2,439.29 2824.65,-218.9 1272.81,-948.28 2531.79,-2350.55 2903.94,-2681.36 192.83,-171.42 452.01,-492.76 584.02,-810.93"/>
   <path class="fil0 str0" d="M34662.93 842.01c-1167.56,629.09 -1394.63,1608.81 -2667.43,2557.08 -883.43,658.19 -3391,746.11 -4042.64,517.21 -1212.96,-426.16 -4501.58,-2196.3 -4552.73,-2959.64 -45.03,-671.98 1114.39,-1104.67 2091.77,-1835.84"/>
   <path class="fil0 str0" d="M34662.93 2084.86c-1167.57,629.09 -599.22,713.97 -1872.01,1662.24 -883.43,658.18 -3813.59,1591.26 -5161.2,1213.2 -1237.85,-347.26 -6088.26,-3145.6 -6093.87,-4550.49 -3.02,-755.06 1790.96,-726.2 3064.52,-1285.17"/>
   <path class="fil0 str0" d="M-550.5 3799.99c1939.57,-2179.76 2265.55,-3073.13 3754.92,-3262.26 1918.08,-243.57 1780.14,46.78 3097.99,-424.55 584.2,-208.94 1327.59,-537.39 1940.06,-998.81"/>
   <path class="fil0 str0" d="M-550.51 2059.99c704.48,-1453.33 1063.56,-2379.53 1490.64,-2950.62"/>
  </g>
 </g>
</svg>
