<?xml version="1.0" encoding="UTF-8"?>
<!DOCTYPE svg PUBLIC "-//W3C//DTD SVG 1.1//EN" "http://www.w3.org/Graphics/SVG/1.1/DTD/svg11.dtd">
<!-- Creator: CorelDRAW 2017 -->
<svg xmlns="http://www.w3.org/2000/svg" xml:space="preserve" width="6.25in" height="3.125in" version="1.1" style="shape-rendering:geometricPrecision; text-rendering:geometricPrecision; image-rendering:optimizeQuality; fill-rule:evenodd; clip-rule:evenodd"
viewBox="0 0 6250 3125"
 xmlns:xlink="http://www.w3.org/1999/xlink">
 <defs>
  <style type="text/css">
   <![CDATA[
    .fil0 {fill:#373435}
   ]]>
  </style>
 </defs>
 <g id="Layer_x0020_1">
  <metadata id="CorelCorpID_0Corel-Layer"/>
  <path class="fil0" d="M2715.81 1081.73c-16.42,-0.57 -37.45,1.93 -54.28,2.78 -17.7,0.9 -35.35,1.86 -53.19,2.71 -111.06,5.37 -210.73,7.41 -322.06,9.85 -141.32,3 -275.65,-11.66 -408.83,-35.54 -31.07,-5.54 -63.23,-12.39 -94.71,-17.43 -73.88,-11.77 -145.26,6.17 -204.35,-17.48 -38.26,-15.28 -40.37,-17.15 -83.04,-27.61 -46.13,-11.26 -229.59,-46.52 -281.63,-51.03 -18.93,-1.65 -34.87,0.56 -53.32,0.05 -18.32,-0.51 -35.08,-1.19 -53.19,-1.81 -102.72,-3.79 -101.83,-8.26 -208.22,7.35 -85.48,12.57 -117.92,16.69 -207.27,13.47 -34.67,-1.3 -71.92,-4.93 -106.45,-4.3 -35.42,0.68 -71.1,2.83 -106.25,4.93 -35.89,2.09 -73.48,0.96 -109.7,1.64 -48.04,0.96 -104.01,-5.04 -145.46,21.72 -3.19,2.04 -5.22,4.08 -8,5.83 -3.26,2.04 -6.31,2.83 -9.5,4.35 -20.42,9.9 -35.82,29.2 -20.76,51.04 8.82,12.85 19.2,14.15 32.5,22.97 39.08,25.92 144.1,23.59 198.58,22.97 39.28,-0.39 64.19,3.28 101.09,9.9 37.52,6.68 63.91,7.53 103.33,7.36 52.24,-0.17 107.74,-3.11 160.46,-5.49 10.85,-0.51 15.88,-0.85 23.54,4.07 5.36,3.39 12.55,8.65 14.79,13.13 -6.65,7.69 -12.48,12.11 -18.86,22.97 -29.17,49.68 -1.63,79.22 36.7,104.45 12.69,8.31 19,9.39 23.88,17.76 10.86,18.68 24.77,28.97 41.46,41.65 18.72,14.15 25.78,25.41 23.41,58 -3.59,49.57 22.66,60.09 39.96,84.25 28.02,39.33 27,63.49 40.37,84.25 27.88,43.12 61.94,52.28 113.1,52.96 115.74,1.59 299.94,-58.17 414.46,-84.25 46.88,-10.69 95.8,-22.07 145.19,-10.92 21.37,4.81 55.57,0.45 78.36,-1.19 166.83,-12.22 220.22,-11.31 388.28,10.3 145.32,18.73 290.65,40.74 434.96,63.99 46.47,7.47 95.32,17.15 141.46,23.15 26.26,-53.75 24.76,-195.95 21.57,-257.91 -2.17,-44.3 -5.9,-87.65 -10.72,-131.27 -2.1,-18.61 -12.62,-114.13 -17.64,-123.63z"/>
  <path class="fil0" d="M3495.92 1054.57c16.42,-0.57 37.45,1.93 54.28,2.77 17.7,0.91 35.35,1.87 53.19,2.72 111.06,5.37 210.73,7.41 322.06,9.85 141.32,3 275.65,-11.66 408.83,-35.54 31.07,-5.55 63.23,-12.39 94.71,-17.43 73.88,-11.77 145.26,6.17 204.35,-17.48 38.26,-15.28 40.37,-17.15 83.04,-27.61 46.13,-11.26 229.59,-46.52 281.63,-51.04 18.93,-1.65 34.87,0.56 53.32,0.06 18.32,-0.51 35.08,-1.2 53.19,-1.81 102.72,-3.79 101.83,-8.26 208.22,7.35 85.48,12.56 117.92,16.69 207.27,13.46 34.67,-1.3 71.92,-4.93 106.45,-4.3 35.42,0.68 71.1,2.83 106.24,4.93 35.89,2.09 73.48,0.96 109.71,1.64 48.04,0.96 104.01,-5.04 145.46,21.72 3.19,2.04 5.22,4.08 8,5.83 3.26,2.04 6.31,2.83 9.5,4.36 20.42,9.9 35.82,29.2 20.76,51.04 -8.82,12.84 -19.2,14.15 -32.5,22.97 -39.08,25.91 -144.1,23.59 -198.58,22.97 -39.28,-0.4 -64.19,3.28 -101.09,9.9 -37.52,6.68 -63.91,7.53 -103.33,7.35 -52.24,-0.17 -107.74,-3.11 -160.46,-5.48 -10.85,-0.51 -15.88,-0.85 -23.54,4.07 -5.36,3.4 -12.55,8.66 -14.79,13.13 6.65,7.7 12.48,12.11 18.86,22.97 29.17,49.68 1.63,79.22 -36.7,104.45 -12.69,8.32 -19,9.39 -23.88,17.77 -10.85,18.67 -24.76,28.97 -41.45,41.65 -18.72,14.15 -25.78,25.41 -23.41,58 3.59,49.57 -22.66,60.09 -39.96,84.25 -28.02,39.33 -27,63.48 -40.37,84.25 -27.88,43.12 -61.94,52.28 -113.1,52.96 -115.74,1.59 -299.94,-58.17 -414.46,-84.25 -46.88,-10.69 -95.8,-22.06 -145.19,-10.92 -21.37,4.81 -55.57,0.45 -78.36,-1.19 -166.83,-12.22 -220.22,-11.31 -388.28,10.3 -145.32,18.73 -290.65,40.74 -434.96,64 -46.47,7.47 -95.32,17.15 -141.46,23.15 -26.26,-53.76 -24.76,-195.95 -21.57,-257.91 2.17,-44.3 5.9,-87.65 10.72,-131.27 2.1,-18.62 12.62,-114.13 17.64,-123.63z"/>
 </g>
</svg>
