<?xml version="1.0" encoding="UTF-8"?>
<!DOCTYPE svg PUBLIC "-//W3C//DTD SVG 1.1//EN" "http://www.w3.org/Graphics/SVG/1.1/DTD/svg11.dtd">
<!-- Creator: CorelDRAW 2017 -->
<svg xmlns="http://www.w3.org/2000/svg" xml:space="preserve" width="02.5in" height="02.in" version="1.1" shape-rendering="geometricPrecision" text-rendering="geometricPrecision" image-rendering="optimizeQuality" fill-rule="evenodd" clip-rule="evenodd"
viewBox="0 0 250 200"
 xmlns:xlink="http://www.w3.org/1999/xlink">
 <g id="Layer_x0020_1">
  <metadata id="CorelCorpID_0Corel-Layer"/>
  <path id="path3501" fill="currentFill" stroke="black" stroke-width="0.09" stroke-linecap="round" stroke-linejoin="round" stroke-miterlimit="2.61313" d="M140.49 145.88c0,-7.54 -6.11,-13.65 -13.65,-13.65 -7.54,0 -13.65,6.11 -13.65,13.65 0,7.54 6.11,13.65 13.65,13.65 7.54,0 13.65,-6.11 13.65,-13.65z"/>
  <path id="path3503" fill="currentFill" stroke="black" stroke-width="0.09" stroke-linecap="round" stroke-linejoin="round" stroke-miterlimit="2.61313" d="M113.19 29.59l0 70.46c0,7.54 6.11,13.65 13.65,13.65 7.54,0 13.65,-6.11 13.65,-13.65l0 -70.46c0,-7.54 -6.11,-13.65 -13.65,-13.65 -7.54,0 -13.65,6.11 -13.65,13.65z"/>
  <path id="path3505" fill="currentFill" stroke="black" stroke-width="0.52" stroke-miterlimit="2.61313" d="M188.69 175.21c30.11,-25.12 42.04,-65.96 30.18,-103.33 -0.93,-2.94 -2.34,-5.7 -4.17,-8.19l-23.48 -31.87c-3.56,-4.84 -5.48,-10.69 -5.48,-16.7l0 -8.54c0,-2.07 1.68,-3.75 3.75,-3.75l14.31 0c2.43,0 4.46,1.85 4.67,4.28l1.64 18.29c0.47,5.24 2.4,10.25 5.57,14.45 12.2,16.17 19.76,35.36 21.86,55.51 1.36,26.27 -6.67,52.17 -22.66,73.06l-8.77 28.2c-0.29,0.94 -1.13,1.6 -2.12,1.65l-20.8 1.09 0 -11.59 -16.1 0 0 11.59 -16.09 0 0 -11.59 -16.1 0 0 11.59 -16.1 0 0 -11.59 -16.1 0 0 11.59 -16.1 0 0 -11.59 -16.1 0 0 11.59 -20.8 -1.09c-0.98,-0.05 -1.83,-0.71 -2.12,-1.65l-8.77 -28.2c-15.98,-20.89 -24.01,-46.79 -22.66,-73.06 2.1,-20.15 9.66,-39.34 21.86,-55.51 3.17,-4.2 5.1,-9.21 5.57,-14.45l1.64 -18.29c0.22,-2.42 2.24,-4.28 4.67,-4.28l14.31 0c2.07,0 3.76,1.68 3.76,3.75l0 8.54c0,6.01 -1.93,11.86 -5.49,16.7l-23.48 31.87c-1.83,2.48 -3.24,5.24 -4.17,8.19 -11.86,37.38 0.07,78.22 30.18,103.33l123.69 0 0 0z"/>
 </g>
</svg>
