<?xml version="1.0" encoding="UTF-8"?>
<!DOCTYPE svg PUBLIC "-//W3C//DTD SVG 1.1//EN" "http://www.w3.org/Graphics/SVG/1.1/DTD/svg11.dtd">
<!-- Creator: CorelDRAW 2017 -->
<svg xmlns="http://www.w3.org/2000/svg" xml:space="preserve" width="6.25in" height="3.125in" version="1.1" style="shape-rendering:geometricPrecision; text-rendering:geometricPrecision; image-rendering:optimizeQuality; fill-rule:evenodd; clip-rule:evenodd"
viewBox="0 0 6250 3125"
 xmlns:xlink="http://www.w3.org/1999/xlink">
 <defs>
  <style type="text/css">
   <![CDATA[
    .fil0 {fill:black}
   ]]>
  </style>
 </defs>
 <g id="Layer_x0020_1">
  <metadata id="CorelCorpID_0Corel-Layer"/>
  <path class="fil0" d="M3380.41 850.28c8.48,12.64 35.72,12.74 53.18,8.86 18.41,-4.09 29.74,-19.23 46.96,-15.34 6.51,23.02 -30.83,29.94 -41.26,41.43 20.85,22.62 63.42,0.89 86.53,-3.49 30.03,-5.69 73.95,5.63 90.23,21.99l-7.26 5.32c-7.84,4.76 -14.57,9.61 -17.48,19.35 19.88,12.66 81.27,23.45 104.95,73.7 26.42,56.07 -29.3,82.76 -68.08,99.05 -127.85,53.7 -229.59,41.48 -296.59,63.13 -46.8,15.13 -80.07,42.63 -112.57,66.22 -61.67,44.77 -261.26,204.83 -321.63,220.53 6.99,-23.02 14.98,-37.66 19.62,-64.37 2.21,-12.69 3.35,-23.44 3.7,-36.79 0.18,-6.83 -0.02,-13.64 -0.37,-20.46l-3.31 -16.37c-6.99,6.23 -10.74,12.18 -17.31,19.49 -16.96,18.84 -34.5,39.96 -53.77,57.21 -10.21,9.14 -65.11,62.91 -90.74,52.62 -10.65,-18.44 5.32,-60.41 8.15,-80.11 -29.25,3.01 -54.43,21.69 -71.28,36 -14.68,12.48 -27.79,24.74 -39.61,40.57 -4.75,6.35 -6.22,10.94 -15.01,11.66 -4.77,-19.51 0.3,-41.44 -6.5,-65.19 -4.4,-15.36 -16.58,-39.86 -27.12,-42.52 -4.08,33.65 -13.51,62.86 -27.56,89.75 -15.49,29.65 -33.37,43.14 -51.53,65.57 -17.51,21.62 -35.24,39.85 -53.59,63.61l-47.1 69.44c-15.65,-34.59 -52.8,-83.04 -90.87,-91.96 3.7,24.62 11.1,48.76 14.84,75.4 3.93,28 5.96,58.76 2.38,87.28 -6.99,55.74 -18.17,110.3 -15.19,168.22 -16.85,-5.77 -29.66,-15.25 -52.22,-11.4 -5.4,27.37 2.41,71.15 12.87,93.98 13.11,28.6 31.01,41.72 52.99,58.04 33.3,24.72 13.43,37.91 30.88,80.17 5.06,12.26 16.49,23.72 24.52,30.91 23.57,21.13 45.68,45.09 67.81,67.83 19.64,20.18 80.26,85.31 86.77,108.55 10.32,36.84 8.85,42.06 72.77,35.37 18.35,-1.92 31.77,-2.37 38.61,-17.45 -2.45,-7.21 -22.96,-29.4 -28.62,-34.92 -11.92,-11.64 -16.05,-25.88 -9.44,-48.7 13.09,-3.86 24.52,-0.52 26.94,0.4 5.28,1.99 2.78,14.46 5.02,19.64 4.02,9.31 24.11,32.87 30.3,40.92 15.08,-6.64 39.37,-38.82 25.13,-55.33 -6.09,-7.06 -9.19,-9.65 -14.62,-16.18 -15.41,-18.52 -11.23,-16.54 -16.06,-43.18 -3.52,-19.43 -11.3,-28.78 -18.93,-43.11 -31.56,-59.25 -11.9,-90.04 -11.15,-154.76 0.26,-22.55 -19.11,-25.55 -19.98,-43.05 6.4,-14.75 27.56,-20.88 47.98,-22.33 30.88,-2.2 36.29,3.76 51.3,18.36 10.06,9.79 24,24.87 33.43,36.49 10.2,12.57 24.22,25.38 32.7,39.22 12.28,20.04 24.6,84.42 27.56,111.7 3.2,29.51 1.48,37.78 -3.77,64.85 -4.09,21.1 -2.78,45.85 -2.2,68.31 1.3,50.68 -23.08,207.52 -49.48,233.43 -39.39,38.65 -6.7,61.55 -38.53,101.26 -11.74,14.65 -22.97,21.03 -32.65,37.22 -7.02,11.73 -20.57,38.17 -18.28,53.65 21.96,7.31 108.44,-7.47 133.15,-12.48 27.2,-5.52 28.02,-11.21 31.75,-44.41 4.46,-39.66 -19.51,-28.92 -8.57,-60.2 6.04,-17.27 28.61,-20.78 29.3,-47.25 0.98,-37.7 -4.02,-31.57 10.45,-65.05 15.28,-35.35 29.32,-70.96 45.55,-105.07 5.52,24.46 20.39,139.69 15.73,166.45 -3.15,18.09 -8.57,33.89 -8.35,52.85 0.19,17.06 7.67,39.66 -0.52,53.24 -7.92,13.13 -20.94,19.98 -29.59,32.15 -11.54,16.23 -31.67,70.87 -27.98,95.65 32.74,5.1 136.21,-24.41 156.53,-39 8.89,-6.38 16.06,-48.26 12.85,-61.68 -1.72,-7.2 -6.61,-9.14 -10.02,-15.47 -11.95,-22.2 22.9,-41.18 23.61,-69.01 0.83,-32.65 -19.7,-46.98 -24.67,-73.44 -4.45,-23.72 -3.72,-68.48 -4.77,-94.37 -1.28,-31.85 -2.3,-63.7 -3.41,-95.29 -0.77,-22.06 -2.43,-25.23 5.66,-43.65 18.95,-43.14 -5.01,-49.06 1.02,-80.7l33.98 -163.94c4.56,-19.16 3.75,-22.76 18.39,-31.03 67.59,-38.19 125.42,-39.97 172.8,-123.17 33.14,-58.19 37.35,-102.74 56.43,-140.67 6.17,5.4 10.14,12.95 15.37,18.39 16.39,17.06 38.56,33.59 61.25,43.56 25.32,11.13 93.05,-8.44 124.72,-10.13 -16.76,41.32 -84.06,77.06 -116.23,109.14 -27.65,27.56 -26.19,74.2 -41.19,108.84 -11.74,27.11 1.71,35.42 13.51,51.92 11.15,15.59 13.37,33.35 23.09,50.92 7.83,14.15 22.81,33.4 38.23,38.78 13.26,-7.78 13.32,-27.32 20.55,-41.65 8.28,8.38 26.78,53.41 61.66,52.81 18.18,-27.78 25.76,-147.97 19.61,-167.59 -4.76,-15.17 -32.19,-11.49 -40.89,-23.37 3.77,-14.05 16.38,-7.19 24.54,-19.35 5.36,-7.99 5.55,-20.48 12.47,-30.71 16.17,-23.92 208.92,-140.48 255.87,-181.89 16.62,-14.66 63.43,-78.25 58.98,-115.21 -34.19,-23.18 -180.4,-10.6 -233.67,-17.27 0.89,-9.68 57.77,-66.66 70.37,-80.87 63.65,-71.8 26.52,-136.97 -9.77,-226.15 -7.41,-18.2 -15.98,-35.71 -22.48,-53.51 -10.06,-27.55 13.43,-27.43 35.3,-33.74 81.29,-23.44 165.02,-44.88 195.22,-109.14 26.19,-55.72 17.41,-128.11 -13.27,-181.44 -6.78,-11.78 -23.56,-40.78 -31.65,-45.61 -6.61,5.82 -10.33,11.73 -14.03,19.63 -22.85,-15.56 -63.69,-100.71 -214.17,-115.12 -51.97,-4.98 -97.07,-0.52 -135.69,24.65 -39.01,25.43 -49.72,48.82 -93.5,69.98z"/>
 </g>
</svg>
