<?xml version="1.0" encoding="UTF-8"?>
<!DOCTYPE svg PUBLIC "-//W3C//DTD SVG 1.1//EN" "http://www.w3.org/Graphics/SVG/1.1/DTD/svg11.dtd">
<!-- Creator: CorelDRAW 2017 -->
<svg xmlns="http://www.w3.org/2000/svg" xml:space="preserve" width="6.25in" height="3.125in" version="1.1" style="shape-rendering:geometricPrecision; text-rendering:geometricPrecision; image-rendering:optimizeQuality; fill-rule:evenodd; clip-rule:evenodd"
viewBox="0 0 6250 3125"
 xmlns:xlink="http://www.w3.org/1999/xlink">
 <defs>
  <style type="text/css">
   <![CDATA[
    .fil0 {fill:#373435}
   ]]>
  </style>
 </defs>
 <g id="Layer_x0020_1">
  <metadata id="CorelCorpID_0Corel-Layer"/>
  <g id="_2096296008608">
   <path class="fil0" d="M4169.2 456.25c-7.86,26.39 -25.46,72.84 -38.41,97.76l-17.13 28.52c2.3,6.45 4.85,11.82 6.85,18.87 10.2,35.06 -10.7,-0.2 23.61,53.15 33.77,52.49 66.96,104.98 93.33,162.35l15.92 34.61c-2.93,-32.54 -27.5,-93.43 -41.54,-125.51 -3.64,-8.31 -13.42,-29.3 -17.51,-34.81 12.37,1.22 17.3,9.28 35.61,3.25 10.57,-3.47 20.31,-10.23 30.43,-12.74 6.39,13.8 26.58,35.2 36.41,43.25 15.67,12.89 23.61,27.51 37.15,42.4 31.09,34.24 71.59,0.44 86.97,-4.4 2.84,-0.89 29.93,-7 31.06,-7.13 19.39,20.32 39.62,54.69 64.03,58.24 51.99,7.58 52.37,-35.79 53.75,-38.6 2.21,-4.63 24.95,-20.89 33.56,-57.29 6.85,-28.88 -0.46,-38.66 -1.88,-54.94 -0.33,-4.04 10.66,-38.93 12.54,-48.15 2.67,-13.38 6.52,-40.5 -1.46,-51.62 -2.05,3.37 -4.97,19.94 -6.6,25.2 -9.74,30.86 -14.29,40.6 -37.11,57.8 5.81,18.3 13.5,30.33 13.5,53.98 0.04,35.22 -16.93,50.51 -39.91,63.42 -5.14,42.65 -51.53,32.28 -64.36,-1.41 -16.63,-43.73 -6.06,-34.71 -41.75,-77.59 -11.5,-13.83 -17.72,-20.11 -10.49,-44.73 7.31,-24.77 47.64,-97.1 60.35,-118.7 6.77,-11.52 16.05,-26.45 19.14,-41.92 2.68,-13.22 12.25,-32.89 19.81,-39.87 18.19,-16.71 74.77,5.97 83.93,22.8 25.16,46.38 38.49,138.53 46.39,192.43 3.89,26.72 14.54,82.82 9.49,107.86 -3.97,19.56 -10.03,26.95 -17.68,42.06 -5.77,11.35 -12.16,29.32 -17.34,42.27 -22.82,57.02 -45.68,113.11 -68.33,170.28 -11.54,29.09 -22.36,57.39 -33.77,87.04 -13.5,35.02 -19.02,56.28 -21.86,97.58 -5.35,77.69 -3.18,154.85 -3.09,232.98 0.8,219.41 8.9,438.4 14.34,657.77l13.37 491.56c1.09,40.02 5.35,129.56 4.26,163.37 -16.67,10.39 -98.59,12.24 -123.96,12.24 -96.67,0 -182.97,-8.44 -276.89,-19.52 -19.65,-2.31 -235.68,-31.31 -251.85,-38.18 -0.75,-13.24 5.39,-44.29 7.48,-59.41 38.41,-275.15 89.82,-650.56 89.73,-910.91 -0.04,-80.95 -0.37,-175.2 -6.22,-253.71 -1.84,-24.96 -2.43,-48.7 -4.93,-73.2 -2.47,-24 -6.06,-48.37 -5.98,-72.28 0.17,-44.3 9.44,-81.69 5.48,-126.54 -3.64,-41.06 -11.87,-73.31 -26.96,-106.54 -33.1,-72.93 -40.79,-132.5 -44.43,-221.55 -3.59,-87.61 -18.64,-163.05 -23.49,-242.98 -3.14,-51.92 17.05,-67.07 39,-94.13 27.96,-34.48 31.43,-38.91 49.19,-82.97 23.03,-57.06 39.5,-80.5 73.56,-126.7 11.29,-15.31 18.48,-28.23 33.06,-33.9 32.98,-12.78 78.37,-10.02 112.26,-21.07 17.47,-5.7 31.43,-13.67 47.73,-19.12 30.72,-10.26 75.44,-18.7 108.41,-23.56 27.5,-4.04 39.46,-8.01 36.78,26.49 -3.34,43.66 -5.48,62.14 -32.47,101.3 -33.89,49.21 -89.31,84.4 -171.02,94.87z"/>
   <path class="fil0" d="M4403.08 735.18c-6.35,22.15 -42.09,33.77 -72.93,-9.54 -12.83,-18.03 -0.38,-7.52 -20.27,-20.91 -44.01,-29.57 -25.24,-54.05 -4.22,-113.74 15.17,-43.03 52.87,-146.34 55.5,-191.72 1.05,-18.36 3.05,-17.39 11.54,-29.55 23.24,-33.31 52.87,-29.27 85.68,-18.04 21.52,7.38 31.22,22.83 42.05,40.32 18.76,30.5 13.71,20.04 -5.35,51.8 -10.95,18.31 -15.51,36.63 -24.7,56.19 -9.03,19.16 -17.89,37.01 -27.83,54.63 -5.22,9.26 -9.91,17.5 -15.63,25.56 -15.3,21.59 -36.52,65.65 -21.44,91.44 7.9,13.54 23.36,37.11 26.16,54.38 -6.94,8.74 -14.96,10.04 -28.54,9.17z"/>
   <path class="fil0" d="M4334.62 413.95c-3.09,27.26 -14.71,67.01 -22.11,91.65 -16.43,54.67 -32.35,75.11 -47.73,118.53 -8.91,25.2 -5.73,34.78 -15.59,39.71 -20.61,10.29 -43.09,16.38 -59.98,-4.69 -4.56,-5.69 -5.48,-11.51 -9.19,-17.76 -7.69,-12.93 -34.06,-26.07 -32.1,-53.24 0.71,-9.74 31.35,-62.15 43.38,-94.5 4.52,-12.11 0.13,-12.32 13.17,-15.27 38.28,-8.67 81.87,-29.68 113.56,-52.53 5.77,-4.17 10.07,-9.08 16.59,-11.91z"/>
   <path class="fil0" d="M4216.09 244.34c-16.51,5.43 -33.06,12.04 -49.65,17.26 -36.03,11.34 -92.49,13.35 -107.74,24.26 -5.81,4.17 -27.17,27.42 -30.89,33.35 9.49,-25.27 51.78,-78.49 69.76,-91.1 17.13,-12.02 40.37,-15.31 65.57,-11.64 22.74,3.3 47.77,9.57 52.95,27.87z"/>
  </g>
  <g id="_2096296006656">
   <path class="fil0" d="M1997.47 503.99c7.86,26.39 25.46,72.84 38.41,97.77l17.13 28.52c-2.3,6.45 -4.85,11.82 -6.85,18.87 -10.2,35.06 10.7,-0.2 -23.61,53.15 -33.77,52.49 -66.96,104.98 -93.33,162.35l-15.92 34.61c2.93,-32.54 27.5,-93.43 41.54,-125.52 3.63,-8.31 13.41,-29.3 17.51,-34.81 -12.37,1.22 -17.3,9.28 -35.61,3.25 -10.57,-3.47 -20.31,-10.23 -30.43,-12.74 -6.39,13.8 -26.58,35.2 -36.41,43.25 -15.67,12.89 -23.61,27.51 -37.15,42.4 -31.09,34.25 -71.59,0.44 -86.97,-4.39 -2.84,-0.9 -29.93,-7 -31.06,-7.13 -19.39,20.32 -39.62,54.69 -64.02,58.24 -51.99,7.58 -52.37,-35.79 -53.75,-38.6 -2.21,-4.63 -24.95,-20.89 -33.56,-57.29 -6.85,-28.88 0.46,-38.66 1.88,-54.94 0.33,-4.04 -10.66,-38.93 -12.54,-48.15 -2.68,-13.39 -6.52,-40.5 1.46,-51.62 2.05,3.37 4.97,19.93 6.6,25.2 9.74,30.86 14.29,40.6 37.11,57.8 -5.81,18.3 -13.5,30.33 -13.5,53.99 -0.04,35.21 16.93,50.51 39.91,63.42 5.14,42.65 51.53,32.28 64.36,-1.41 16.63,-43.74 6.06,-34.71 41.75,-77.59 11.5,-13.83 17.72,-20.11 10.49,-44.72 -7.31,-24.77 -47.64,-97.11 -60.35,-118.7 -6.77,-11.52 -16.05,-26.46 -19.14,-41.92 -2.68,-13.22 -12.25,-32.89 -19.81,-39.87 -18.18,-16.71 -74.77,5.98 -83.93,22.8 -25.16,46.37 -38.49,138.53 -46.39,192.43 -3.89,26.73 -14.54,82.82 -9.48,107.86 3.97,19.56 10.03,26.95 17.68,42.06 5.77,11.35 12.16,29.32 17.34,42.27 22.82,57.02 45.68,113.1 68.33,170.27 11.54,29.09 22.36,57.39 33.77,87.04 13.5,35.02 19.02,56.28 21.86,97.58 5.35,77.69 3.18,154.84 3.09,232.98 -0.8,219.41 -8.9,438.4 -14.34,657.76l-13.37 491.56c-1.09,40.02 -5.35,129.56 -4.26,163.37 16.67,10.39 98.59,12.24 123.96,12.24 96.67,0 182.97,-8.44 276.89,-19.52 19.65,-2.31 235.68,-31.32 251.85,-38.18 0.75,-13.25 -5.39,-44.3 -7.48,-59.41 -38.41,-275.15 -89.82,-650.56 -89.73,-910.91 0.04,-80.95 0.38,-175.2 6.22,-253.71 1.84,-24.96 2.43,-48.7 4.93,-73.2 2.47,-24 6.06,-48.37 5.98,-72.28 -0.17,-44.29 -9.44,-81.69 -5.48,-126.54 3.64,-41.05 11.87,-73.31 26.96,-106.54 33.1,-72.93 40.79,-132.5 44.43,-221.55 3.59,-87.61 18.64,-163.06 23.49,-242.98 3.14,-51.92 -17.05,-67.07 -39,-94.13 -27.96,-34.48 -31.43,-38.91 -49.19,-82.97 -23.03,-57.06 -39.5,-80.5 -73.56,-126.7 -11.29,-15.31 -18.48,-28.23 -33.06,-33.9 -32.98,-12.78 -78.37,-10.02 -112.26,-21.07 -17.47,-5.7 -31.43,-13.67 -47.73,-19.12 -30.72,-10.26 -75.44,-18.7 -108.41,-23.56 -27.5,-4.05 -39.46,-8.01 -36.78,26.49 3.34,43.66 5.48,62.14 32.47,101.3 33.89,49.2 89.31,84.39 171.02,94.86z"/>
   <path class="fil0" d="M1763.59 782.92c6.35,22.15 42.09,33.77 72.93,-9.54 12.83,-18.04 0.38,-7.52 20.27,-20.91 44.01,-29.57 25.24,-54.06 4.22,-113.74 -15.17,-43.03 -52.87,-146.34 -55.5,-191.71 -1.05,-18.36 -3.05,-17.4 -11.54,-29.55 -23.24,-33.32 -52.87,-29.28 -85.68,-18.04 -21.52,7.38 -31.22,22.83 -42.05,40.32 -18.76,30.49 -13.71,20.04 5.35,51.8 10.95,18.31 15.51,36.63 24.7,56.19 9.03,19.17 17.89,37.01 27.83,54.63 5.22,9.26 9.91,17.51 15.63,25.56 15.3,21.59 36.53,65.65 21.44,91.44 -7.9,13.55 -23.36,37.11 -26.16,54.38 6.94,8.74 14.96,10.04 28.54,9.17z"/>
   <path class="fil0" d="M1832.06 461.69c3.09,27.26 14.71,67.01 22.11,91.66 16.43,54.67 32.35,75.11 47.73,118.53 8.91,25.2 5.73,34.78 15.59,39.71 20.61,10.29 43.09,16.38 59.98,-4.69 4.56,-5.69 5.48,-11.51 9.19,-17.77 7.69,-12.93 34.06,-26.07 32.1,-53.24 -0.71,-9.74 -31.35,-62.15 -43.39,-94.5 -4.52,-12.11 -0.13,-12.32 -13.17,-15.26 -38.28,-8.67 -81.87,-29.68 -113.56,-52.53 -5.77,-4.17 -10.07,-9.08 -16.59,-11.91z"/>
   <path class="fil0" d="M1950.58 292.08c16.51,5.43 33.06,12.04 49.65,17.26 36.03,11.34 92.49,13.35 107.74,24.25 5.81,4.17 27.17,27.42 30.89,33.35 -9.49,-25.27 -51.78,-78.49 -69.76,-91.1 -17.13,-12.02 -40.37,-15.31 -65.57,-11.64 -22.74,3.3 -47.77,9.57 -52.95,27.87z"/>
  </g>
 </g>
</svg>
